<?xml version="1.0" encoding="UTF-8" standalone="no"?>
<!-- Created with Inkscape (http://www.inkscape.org/) -->

<svg
   xmlns:dc="http://purl.org/dc/elements/1.1/"
   xmlns:cc="http://creativecommons.org/ns#"
   xmlns:rdf="http://www.w3.org/1999/02/22-rdf-syntax-ns#"
   xmlns:svg="http://www.w3.org/2000/svg"
   xmlns="http://www.w3.org/2000/svg"
   xmlns:xlink="http://www.w3.org/1999/xlink"
   xmlns:sodipodi="http://sodipodi.sourceforge.net/DTD/sodipodi-0.dtd"
   xmlns:inkscape="http://www.inkscape.org/namespaces/inkscape"
   inkscape:export-ydpi="281.25"
   inkscape:export-xdpi="281.25"
   inkscape:export-filename="C:\Users\RyanAwesome\Documents\portalsdk\src\portal\800.png"
   sodipodi:docname="portal_sdk.svg"
   inkscape:version="0.48.4 r9939"
   version="1.1"
   id="svg2"
   height="256"
   width="256">
  <sodipodi:namedview
     id="base"
     pagecolor="#000000"
     bordercolor="#666666"
     borderopacity="1.0"
     inkscape:pageopacity="0.55686275"
     inkscape:pageshadow="2"
     inkscape:zoom="2.8"
     inkscape:cx="107.50253"
     inkscape:cy="137.40059"
     inkscape:document-units="px"
     inkscape:current-layer="layer2"
     showgrid="true"
     inkscape:snap-bbox="true">
    <inkscape:grid
       type="xygrid"
       id="grid2985"
       empspacing="5"
       visible="true"
       enabled="true"
       snapvisiblegridlinesonly="true"
       spacingx="10px"
       spacingy="10px" />
  </sodipodi:namedview>
  <defs
     id="defs4">
    <linearGradient
       inkscape:collect="always"
       id="linearGradient9115">
      <stop
         style="stop-color:#1a1a1a;stop-opacity:1;"
         offset="0"
         id="stop9117" />
      <stop
         style="stop-color:#1a1a1a;stop-opacity:0;"
         offset="1"
         id="stop9119" />
    </linearGradient>
    <linearGradient
       id="linearGradient3944">
      <stop
         style="stop-color:#d45500;stop-opacity:1;"
         offset="0"
         id="stop3946" />
      <stop
         style="stop-color:#008eca;stop-opacity:1;"
         offset="1"
         id="stop3948" />
    </linearGradient>
    <linearGradient
       inkscape:collect="always"
       xlink:href="#linearGradient9115"
       id="linearGradient9121"
       x1="150"
       y1="96"
       x2="260"
       y2="226"
       gradientUnits="userSpaceOnUse" />
    <clipPath
       clipPathUnits="userSpaceOnUse"
       id="clipPath9194">
      <rect
         style="fill:#aa4400;fill-opacity:1;fill-rule:nonzero;stroke:none"
         id="rect9196"
         width="256"
         height="256"
         x="0"
         y="0"
         rx="20" />
    </clipPath>
  </defs>
  <metadata
     id="metadata7">
    <rdf:RDF>
      <cc:Work
         rdf:about="">
        <dc:format>image/svg+xml</dc:format>
        <dc:type
           rdf:resource="http://purl.org/dc/dcmitype/StillImage" />
        <dc:title></dc:title>
      </cc:Work>
    </rdf:RDF>
  </metadata>
  <g
     inkscape:label="Layer 1"
     inkscape:groupmode="layer"
     id="layer1"
     transform="translate(0,-796.36218)"
     style="display:inline" />
  <g
     inkscape:groupmode="layer"
     id="layer3"
     inkscape:label="blueorange" />
  <g
     inkscape:groupmode="layer"
     id="layer2"
     inkscape:label="sdk">
    <rect
       style="fill:#d45500;fill-opacity:1;fill-rule:nonzero;stroke:none"
       id="rect9124"
       width="256"
       height="256"
       x="0"
       y="0"
       rx="0" />
    <path
       style="fill:url(#linearGradient9121);fill-opacity:1;fill-rule:nonzero;stroke:none;opacity:0.40000000000000002;"
       d="M 140.65625 84.96875 L 140.65625 115.96875 C 140.33722 115.63235 140.01368 115.3146 139.6875 115 C 134.78933 109.89155 129.05353 107.34381 122.5 107.34375 C 114.88115 107.34381 108.58132 110.1073 103.59375 115.625 C 100.82099 118.69252 98.852827 122.54667 97.625 127.1875 C 97.614283 127.1773 97.604491 127.16642 97.59375 127.15625 C 97.299742 126.84138 97.001314 126.54449 96.6875 126.25 C 96.403626 125.94873 96.114669 125.65744 95.8125 125.375 C 95.538171 125.08518 95.260086 124.80356 94.96875 124.53125 C 94.694421 124.24143 94.416336 123.95981 94.125 123.6875 C 93.850671 123.39768 93.572586 123.11606 93.28125 122.84375 C 93.006921 122.55393 92.728836 122.27231 92.4375 122 C 92.163171 121.71018 91.885086 121.42856 91.59375 121.15625 C 91.349629 120.89835 91.101338 120.65029 90.84375 120.40625 C 90.531597 120.07151 90.209509 119.74923 89.875 119.4375 C 89.581741 119.12862 89.281386 118.82019 88.96875 118.53125 C 88.730452 118.28214 88.469745 118.04854 88.21875 117.8125 C 87.947379 117.52435 87.663099 117.23968 87.375 116.96875 C 87.083328 116.65904 86.779747 116.35232 86.46875 116.0625 C 86.194075 115.77319 85.916673 115.49056 85.625 115.21875 C 85.350325 114.92944 85.072923 114.64681 84.78125 114.375 C 83.780456 113.3209 82.69546 112.35294 81.46875 111.53125 C 77.305839 108.74298 70.936323 107.34381 62.375 107.34375 C 53.381619 107.34381 46.749416 109.18347 42.46875 112.875 C 38.188061 116.56665 36.031245 121.11172 36.03125 126.53125 C 36.031246 131.56204 37.777855 135.6854 41.25 138.875 C 41.520625 139.16009 41.798061 139.44712 42.09375 139.71875 C 42.337957 139.97601 42.579133 140.2537 42.84375 140.5 C 43.125396 140.80059 43.440732 141.08925 43.75 141.375 C 43.956745 141.59406 44.184763 141.82011 44.40625 142.03125 C 44.667197 142.31649 44.964567 142.6029 45.25 142.875 C 45.583351 143.23939 45.970445 143.59457 46.34375 143.9375 C 46.545306 144.14983 46.75329 144.35764 46.96875 144.5625 C 47.239031 144.8587 47.51586 145.1242 47.8125 145.40625 C 48.082781 145.70245 48.35961 145.96795 48.65625 146.25 C 48.926531 146.5462 49.20336 146.8117 49.5 147.09375 C 49.770281 147.38995 50.04711 147.65545 50.34375 147.9375 C 50.653766 148.27725 50.967807 148.61637 51.3125 148.9375 C 51.582296 149.22621 51.861017 149.5062 52.15625 149.78125 C 52.426046 150.06996 52.704767 150.34995 53 150.625 C 53.297777 150.94366 53.608737 151.26049 53.9375 151.5625 C 54.208125 151.84759 54.485561 152.13462 54.78125 152.40625 C 55.051875 152.69134 55.329311 152.97837 55.625 153.25 C 55.883972 153.52282 56.155576 153.80201 56.4375 154.0625 C 56.644245 154.28156 56.872263 154.50761 57.09375 154.71875 C 57.354697 155.00399 57.652067 155.2904 57.9375 155.5625 C 58.198447 155.84774 58.495817 156.13415 58.78125 156.40625 C 59.047211 156.69697 59.364853 156.97293 59.65625 157.25 C 59.926531 157.5462 60.20336 157.8117 60.5 158.09375 C 60.770281 158.38995 61.04711 158.65545 61.34375 158.9375 C 61.614031 159.2337 61.89086 159.4992 62.1875 159.78125 C 62.433554 160.0509 62.669599 160.30457 62.9375 160.5625 C 63.005553 160.63806 63.086496 160.70661 63.15625 160.78125 C 61.909032 160.754 60.747479 160.64404 59.6875 160.4375 C 59.672838 160.37398 59.670327 160.31413 59.65625 160.25 L 59.1875 160.3125 C 59.13629 160.30079 59.081999 160.2934 59.03125 160.28125 C 58.951038 159.98992 58.879471 159.71135 58.8125 159.40625 L 58.1875 159.5 C 58.100937 159.19004 58.04023 158.88814 57.96875 158.5625 L 57.34375 158.65625 C 57.257187 158.34629 57.19648 158.04439 57.125 157.71875 L 56.5 157.8125 C 56.413437 157.50254 56.35273 157.20064 56.28125 156.875 L 55.65625 156.96875 C 55.568958 156.65668 55.478243 156.32798 55.40625 156 L 54.8125 156.09375 C 54.728292 155.79064 54.632318 155.47432 54.5625 155.15625 L 53.96875 155.25 C 53.884542 154.94689 53.788568 154.63057 53.71875 154.3125 L 53.125 154.40625 C 53.040792 154.10314 52.944818 153.78682 52.875 153.46875 L 52.28125 153.5625 C 52.197042 153.25939 52.101068 152.94307 52.03125 152.625 L 51.4375 152.71875 C 51.353292 152.41564 51.257318 152.09932 51.1875 151.78125 L 50.59375 151.875 C 50.509542 151.57189 50.413568 151.25557 50.34375 150.9375 L 33.75 153.46875 C 34.945201 158.09635 37.212064 161.946 40.5 165.0625 C 40.787865 165.36375 41.069139 165.68037 41.375 165.96875 C 41.649631 166.25468 41.92784 166.53822 42.21875 166.8125 C 42.493381 167.09843 42.77159 167.38197 43.0625 167.65625 C 43.337131 167.94218 43.61534 168.22572 43.90625 168.5 C 44.211028 168.81731 44.518922 169.13453 44.84375 169.4375 C 45.075084 169.6761 45.319742 169.89457 45.5625 170.125 C 45.83771 170.4137 46.114545 170.69185 46.40625 170.96875 C 46.670225 171.24566 46.939599 171.5152 47.21875 171.78125 C 47.492341 172.06933 47.772534 172.34864 48.0625 172.625 C 48.336091 172.91308 48.616284 173.19239 48.90625 173.46875 C 49.139913 173.71478 49.379393 173.95001 49.625 174.1875 C 49.954462 174.54005 50.30258 174.88352 50.65625 175.21875 C 50.92934 175.50454 51.210714 175.7883 51.5 176.0625 C 51.77309 176.34829 52.054464 176.63205 52.34375 176.90625 C 52.61684 177.19204 52.898214 177.4758 53.1875 177.75 C 53.475365 178.05125 53.756639 178.36787 54.0625 178.65625 C 54.337131 178.94218 54.61534 179.22572 54.90625 179.5 C 55.180881 179.78593 55.45909 180.06947 55.75 180.34375 C 56.024631 180.62968 56.30284 180.91322 56.59375 181.1875 C 56.868381 181.47343 57.14659 181.75697 57.4375 182.03125 C 57.742278 182.34856 58.050172 182.66578 58.375 182.96875 C 58.606334 183.20735 58.850992 183.42582 59.09375 183.65625 C 59.357725 183.93316 59.627099 184.2027 59.90625 184.46875 C 60.179841 184.75683 60.460034 185.03614 60.75 185.3125 C 61.023591 185.60058 61.303784 185.87989 61.59375 186.15625 C 61.827413 186.40228 62.066893 186.63751 62.3125 186.875 C 62.641962 187.22755 62.99008 187.57102 63.34375 187.90625 C 63.61684 188.19204 63.898214 188.4758 64.1875 188.75 C 64.46059 189.03579 64.741964 189.31955 65.03125 189.59375 C 65.30434 189.87954 65.585714 190.1633 65.875 190.4375 C 66.14809 190.72329 66.429464 191.00705 66.71875 191.28125 C 67.006615 191.5825 67.287889 191.89912 67.59375 192.1875 C 67.868381 192.47343 68.14659 192.75697 68.4375 193.03125 C 68.712131 193.31718 68.99034 193.60072 69.28125 193.875 C 69.555881 194.16093 69.83409 194.44447 70.125 194.71875 C 70.429778 195.03606 70.737672 195.35328 71.0625 195.65625 C 71.293834 195.89485 71.538492 196.11332 71.78125 196.34375 C 72.05646 196.63245 72.333295 196.9106 72.625 197.1875 C 72.888975 197.46441 73.158349 197.73395 73.4375 198 C 73.711091 198.28808 73.991284 198.56739 74.28125 198.84375 C 74.554841 199.13183 74.835034 199.41114 75.125 199.6875 C 75.358663 199.93353 75.598143 200.16876 75.84375 200.40625 C 76.173212 200.7588 76.52133 201.10227 76.875 201.4375 C 77.14809 201.72329 77.429464 202.00705 77.71875 202.28125 C 77.99184 202.56704 78.273214 202.8508 78.5625 203.125 C 78.83559 203.41079 79.116964 203.69455 79.40625 203.96875 C 79.694115 204.27 79.975389 204.58662 80.28125 204.875 C 80.555881 205.16093 80.83409 205.44447 81.125 205.71875 C 81.399631 206.00468 81.67784 206.28822 81.96875 206.5625 C 82.243381 206.84843 82.52159 207.13197 82.8125 207.40625 C 83.132606 207.73952 83.470277 208.05755 83.8125 208.375 C 84.028228 208.5962 84.243156 208.81711 84.46875 209.03125 C 84.74396 209.31995 85.020795 209.5981 85.3125 209.875 C 85.576475 210.15191 85.845849 210.42145 86.125 210.6875 C 86.398591 210.97558 86.678784 211.25489 86.96875 211.53125 C 87.242341 211.81933 87.522534 212.09864 87.8125 212.375 C 88.046163 212.62103 88.285644 212.85626 88.53125 213.09375 C 88.860712 213.4463 89.20883 213.78977 89.5625 214.125 C 89.83559 214.41079 90.116964 214.69455 90.40625 214.96875 C 90.67934 215.25454 90.960714 215.5383 91.25 215.8125 C 91.52309 216.09829 91.804464 216.38205 92.09375 216.65625 C 92.36684 216.94204 92.648214 217.2258 92.9375 217.5 C 93.225365 217.80125 93.506639 218.11787 93.8125 218.40625 C 94.087131 218.69218 94.36534 218.97572 94.65625 219.25 C 94.930881 219.53593 95.20909 219.81947 95.5 220.09375 C 95.774631 220.37968 96.05284 220.66322 96.34375 220.9375 C 96.648529 221.25481 96.956422 221.57203 97.28125 221.875 C 97.512584 222.1136 97.757242 222.33207 98 222.5625 C 98.27521 222.8512 98.552045 223.12935 98.84375 223.40625 C 99.107725 223.68316 99.377099 223.9527 99.65625 224.21875 C 99.929841 224.50683 100.21003 224.78614 100.5 225.0625 C 100.73366 225.30853 100.97314 225.54376 101.21875 225.78125 C 101.53412 226.11872 101.84995 226.45965 102.1875 226.78125 C 102.47464 227.0834 102.78859 227.367 103.09375 227.65625 C 103.36684 227.94204 103.64821 228.2258 103.9375 228.5 C 104.21059 228.78579 104.49196 229.06955 104.78125 229.34375 C 105.05434 229.62954 105.33571 229.9133 105.625 230.1875 C 105.91287 230.48875 106.19414 230.80537 106.5 231.09375 C 106.77463 231.37968 107.05284 231.66322 107.34375 231.9375 C 107.61838 232.22343 107.89659 232.50697 108.1875 232.78125 C 108.46213 233.06718 108.74034 233.35072 109.03125 233.625 C 109.35136 233.95827 109.68903 234.2763 110.03125 234.59375 C 110.24698 234.81495 110.46191 235.03586 110.6875 235.25 C 110.96271 235.5387 111.23954 235.81685 111.53125 236.09375 C 111.79522 236.37066 112.0646 236.6402 112.34375 236.90625 C 112.61734 237.19433 112.89753 237.47364 113.1875 237.75 C 113.46109 238.03808 113.74128 238.31739 114.03125 238.59375 C 114.26491 238.83978 114.50439 239.07501 114.75 239.3125 C 115.07946 239.66505 115.42758 240.00852 115.78125 240.34375 C 116.05434 240.62954 116.33571 240.9133 116.625 241.1875 C 116.89809 241.47329 117.17946 241.75705 117.46875 242.03125 C 117.74184 242.31704 118.02321 242.6008 118.3125 242.875 C 118.58559 243.16079 118.86696 243.44455 119.15625 243.71875 C 119.44412 244.02 119.72539 244.33662 120.03125 244.625 C 120.30588 244.91093 120.58409 245.19447 120.875 245.46875 C 121.14963 245.75468 121.42784 246.03822 121.71875 246.3125 C 121.99338 246.59843 122.27159 246.88197 122.5625 247.15625 C 122.86728 247.47356 123.17517 247.79078 123.5 248.09375 C 123.73133 248.33235 123.97599 248.55082 124.21875 248.78125 C 124.49396 249.06995 124.77079 249.3481 125.0625 249.625 C 125.32648 249.90191 125.59585 250.17145 125.875 250.4375 C 126.14859 250.72558 126.42878 251.00489 126.71875 251.28125 C 126.95241 251.52728 127.19189 251.76251 127.4375 252 C 127.75287 252.33747 128.0687 252.6784 128.40625 253 C 128.69339 253.30215 129.00734 253.58575 129.3125 253.875 C 129.58559 254.16079 129.86696 254.44455 130.15625 254.71875 C 130.42934 255.00454 130.71071 255.2883 131 255.5625 C 131.27309 255.84829 131.55446 256.13205 131.84375 256.40625 C 132.13162 256.7075 132.41289 257.02412 132.71875 257.3125 C 132.99338 257.59843 133.27159 257.88197 133.5625 258.15625 C 133.83713 258.44218 134.11534 258.72572 134.40625 259 C 134.68088 259.28593 134.95909 259.56947 135.25 259.84375 C 135.57011 260.17702 135.90778 260.49505 136.25 260.8125 C 136.46573 261.0337 136.68066 261.25461 136.90625 261.46875 C 137.18146 261.75745 137.4583 262.0356 137.75 262.3125 C 138.01397 262.58941 138.28335 262.85895 138.5625 263.125 C 138.83609 263.41308 139.11628 263.69239 139.40625 263.96875 C 139.67984 264.25683 139.96003 264.53614 140.25 264.8125 C 140.48366 265.05853 140.72314 265.29376 140.96875 265.53125 C 141.29821 265.8838 141.64633 266.22727 142 266.5625 C 142.27309 266.84829 142.55446 267.13205 142.84375 267.40625 C 143.11684 267.69204 143.39821 267.9758 143.6875 268.25 C 143.96059 268.53579 144.24196 268.81955 144.53125 269.09375 C 144.80434 269.37954 145.08571 269.6633 145.375 269.9375 C 145.66287 270.23875 145.94414 270.55537 146.25 270.84375 C 146.52463 271.12968 146.80284 271.41322 147.09375 271.6875 C 147.36838 271.97343 147.64659 272.25697 147.9375 272.53125 C 148.21213 272.81718 148.49034 273.10072 148.78125 273.375 C 149.08603 273.69231 149.39392 274.00953 149.71875 274.3125 C 149.95008 274.5511 150.19474 274.76957 150.4375 275 C 150.71271 275.2887 150.98955 275.56685 151.28125 275.84375 C 151.54522 276.12066 151.8146 276.3902 152.09375 276.65625 C 152.36734 276.94433 152.64753 277.22364 152.9375 277.5 C 153.17116 277.74603 153.41064 277.98126 153.65625 278.21875 C 153.97162 278.55622 154.28745 278.89715 154.625 279.21875 C 154.91214 279.5209 155.22609 279.8045 155.53125 280.09375 C 155.80434 280.37954 156.08571 280.6633 156.375 280.9375 C 156.64809 281.22329 156.92946 281.50705 157.21875 281.78125 C 157.49184 282.06704 157.77321 282.3508 158.0625 282.625 C 158.35037 282.92625 158.63164 283.24287 158.9375 283.53125 C 159.21213 283.81718 159.49034 284.10072 159.78125 284.375 C 160.05588 284.66093 160.33409 284.94447 160.625 285.21875 C 160.89963 285.50468 161.17784 285.78822 161.46875 286.0625 C 161.78886 286.39577 162.12653 286.7138 162.46875 287.03125 C 162.68448 287.25245 162.89941 287.47336 163.125 287.6875 C 163.40021 287.9762 163.67705 288.25435 163.96875 288.53125 C 164.23272 288.80816 164.5021 289.0777 164.78125 289.34375 C 165.05484 289.63183 165.33503 289.91114 165.625 290.1875 C 165.89859 290.47558 166.17878 290.75489 166.46875 291.03125 C 166.70241 291.27728 166.94189 291.51251 167.1875 291.75 C 167.51696 292.10255 167.86508 292.44602 168.21875 292.78125 C 168.49184 293.06704 168.77321 293.3508 169.0625 293.625 C 169.33559 293.91079 169.61696 294.19455 169.90625 294.46875 C 170.17934 294.75454 170.46071 295.0383 170.75 295.3125 C 171.02309 295.59829 171.30446 295.88205 171.59375 296.15625 C 171.88162 296.4575 172.16289 296.77412 172.46875 297.0625 C 172.74338 297.34843 173.02159 297.63197 173.3125 297.90625 C 173.58713 298.19218 173.86534 298.47572 174.15625 298.75 C 174.43088 299.03593 174.70909 299.31947 175 299.59375 C 175.30478 299.91106 175.61267 300.22828 175.9375 300.53125 C 176.16883 300.76985 176.41349 300.98832 176.65625 301.21875 C 176.92022 301.49566 177.1896 301.7652 177.46875 302.03125 C 177.74234 302.31933 178.02253 302.59864 178.3125 302.875 C 178.58609 303.16308 178.86628 303.44239 179.15625 303.71875 C 179.38991 303.96478 179.62939 304.20001 179.875 304.4375 C 180.19037 304.77497 180.5062 305.1159 180.84375 305.4375 C 181.13089 305.73965 181.44484 306.02325 181.75 306.3125 C 182.02309 306.59829 182.30446 306.88205 182.59375 307.15625 C 182.86684 307.44204 183.14821 307.7258 183.4375 308 C 183.71059 308.28579 183.99196 308.56955 184.28125 308.84375 C 184.56912 309.145 184.85039 309.46162 185.15625 309.75 C 185.43088 310.03593 185.70909 310.31947 186 310.59375 C 186.27463 310.87968 186.55284 311.16322 186.84375 311.4375 C 187.11838 311.72343 187.39659 312.00697 187.6875 312.28125 C 187.99228 312.59856 188.30017 312.91578 188.625 313.21875 C 188.85633 313.45735 189.10099 313.67582 189.34375 313.90625 C 189.61896 314.19495 189.8958 314.4731 190.1875 314.75 C 190.45147 315.02691 190.72085 315.29645 191 315.5625 C 191.27359 315.85058 191.55378 316.12989 191.84375 316.40625 C 192.11734 316.69433 192.39753 316.97364 192.6875 317.25 C 192.92116 317.49603 193.16064 317.73126 193.40625 317.96875 C 193.73571 318.3213 194.08383 318.66477 194.4375 319 C 194.71059 319.28579 194.99196 319.56955 195.28125 319.84375 C 195.55434 320.12954 195.83571 320.4133 196.125 320.6875 C 196.39809 320.97329 196.67946 321.25705 196.96875 321.53125 C 197.25662 321.8325 197.53789 322.14912 197.84375 322.4375 C 198.11838 322.72343 198.39659 323.00697 198.6875 323.28125 C 198.96213 323.56718 199.24034 323.85072 199.53125 324.125 C 199.80588 324.41093 200.08409 324.69447 200.375 324.96875 C 200.64963 325.25468 200.92784 325.53822 201.21875 325.8125 C 201.52353 326.12981 201.83142 326.44703 202.15625 326.75 C 202.38758 326.9886 202.63224 327.20707 202.875 327.4375 C 203.13897 327.71441 203.40835 327.98395 203.6875 328.25 C 203.96109 328.53808 204.24128 328.81739 204.53125 329.09375 C 204.80484 329.38183 205.08503 329.66114 205.375 329.9375 C 205.60866 330.18353 205.84814 330.41876 206.09375 330.65625 C 206.42321 331.0088 206.77133 331.35227 207.125 331.6875 C 207.39809 331.97329 207.67946 332.25705 207.96875 332.53125 C 209.11549 333.73131 210.38021 334.84738 211.8125 335.84375 C 216.78043 339.29971 223.50914 341.03125 232.03125 341.03125 C 241.41729 341.03125 248.52123 338.96734 253.3125 334.84375 C 257.90101 330.89458 260.27456 326.2069 260.46875 320.78125 C 260.49565 320.80677 260.53555 320.81837 260.5625 320.84375 C 260.688 320.97178 260.81083 321.094 260.9375 321.21875 C 261.04276 321.33077 261.1439 321.45284 261.25 321.5625 C 261.29789 321.6082 261.3582 321.64226 261.40625 321.6875 C 261.53175 321.81553 261.65458 321.93775 261.78125 322.0625 C 261.88651 322.17452 261.98765 322.29659 262.09375 322.40625 C 262.14164 322.45195 262.20195 322.48601 262.25 322.53125 C 262.3755 322.65928 262.49833 322.7815 262.625 322.90625 C 262.73026 323.01827 262.8314 323.14034 262.9375 323.25 C 262.98539 323.2957 263.0457 323.32976 263.09375 323.375 C 263.21925 323.50303 263.34208 323.62525 263.46875 323.75 C 263.57401 323.86202 263.67515 323.98409 263.78125 324.09375 C 263.82914 324.13945 263.88945 324.17351 263.9375 324.21875 C 264.063 324.34678 264.18583 324.469 264.3125 324.59375 C 264.41776 324.70577 264.5189 324.82784 264.625 324.9375 C 264.67289 324.9832 264.7332 325.01726 264.78125 325.0625 C 264.90675 325.19053 265.02958 325.31275 265.15625 325.4375 C 265.26151 325.54952 265.36265 325.67159 265.46875 325.78125 C 265.51664 325.82695 265.57695 325.86101 265.625 325.90625 C 265.96673 326.25494 266.30585 326.61316 266.65625 326.9375 C 266.96223 327.24467 267.24963 327.55594 267.5625 327.84375 C 267.71451 328.00765 267.87747 328.15356 268.03125 328.3125 C 268.08362 328.36255 268.13493 328.41926 268.1875 328.46875 C 268.46563 328.75214 268.74738 329.04523 269.03125 329.3125 C 269.30938 329.59589 269.59113 329.88898 269.875 330.15625 C 270.15313 330.43964 270.43488 330.73273 270.71875 331 C 270.99688 331.28339 271.27863 331.57648 271.5625 331.84375 C 271.68611 331.9697 271.81275 332.09598 271.9375 332.21875 C 272.04276 332.33077 272.1439 332.45284 272.25 332.5625 C 272.29715 332.60749 272.35894 332.64295 272.40625 332.6875 C 272.53175 332.81553 272.65458 332.93775 272.78125 333.0625 C 272.88651 333.17452 272.98765 333.29659 273.09375 333.40625 C 273.14164 333.45195 273.20195 333.48601 273.25 333.53125 C 278.14577 338.52562 283.92033 341.03125 290.59375 341.03125 C 294.12822 341.03125 297.61811 340.15387 301.09375 338.40625 C 302.81885 337.53882 304.43477 336.43902 305.9375 335.125 L 305.9375 335.40625 L 306.78125 335.40625 L 306.78125 336.25 L 307.625 336.25 L 307.625 337.09375 L 308.46875 337.09375 L 308.46875 337.9375 L 309.3125 337.9375 L 309.3125 338.78125 L 310.15625 338.78125 L 310.15625 339.625 L 325.53125 339.625 L 325.53125 330.3125 L 325.9375 330.3125 L 325.9375 331.15625 L 326.78125 331.15625 L 326.78125 332 L 327.625 332 L 327.625 332.84375 L 328.46875 332.84375 L 328.46875 333.6875 L 329.34375 333.6875 L 329.34375 334.5625 L 330.1875 334.5625 L 330.1875 335.40625 L 331.03125 335.40625 L 331.03125 336.25 L 331.875 336.25 L 331.875 337.09375 L 332.71875 337.09375 L 332.71875 337.9375 L 333.5625 337.9375 L 333.5625 338.78125 L 334.40625 338.78125 L 334.40625 339.625 L 350.96875 339.625 L 350.96875 319.59375 L 352.8125 317.6875 L 353.25 318.46875 L 353.625 318.46875 L 354.09375 319.3125 L 354.46875 319.3125 L 354.9375 320.15625 L 355.3125 320.15625 L 355.8125 321.03125 L 356.1875 321.03125 L 356.65625 321.875 L 357.03125 321.875 L 357.5 322.71875 L 357.875 322.71875 L 358.34375 323.5625 L 358.71875 323.5625 L 359.1875 324.40625 L 359.5625 324.40625 L 360.03125 325.25 L 360.40625 325.25 L 360.875 326.09375 L 361.25 326.09375 L 361.71875 326.9375 L 362.09375 326.9375 L 362.5625 327.78125 L 362.9375 327.78125 L 363.40625 328.625 L 363.78125 328.625 L 364.25 329.46875 L 364.625 329.46875 L 365.09375 330.3125 L 365.46875 330.3125 L 365.9375 331.15625 L 366.3125 331.15625 L 366.78125 332 L 367.15625 332 L 367.625 332.84375 L 368 332.84375 L 368.46875 333.6875 L 368.84375 333.6875 L 369.34375 334.5625 L 369.71875 334.5625 L 370.1875 335.40625 L 370.5625 335.40625 L 371.03125 336.25 L 371.40625 336.25 L 371.875 337.09375 L 372.25 337.09375 L 372.71875 337.9375 L 373.09375 337.9375 L 373.5625 338.78125 L 373.9375 338.78125 L 374.40625 339.625 L 392.25 339.625 L 369.34375 299.9375 L 390.71875 277.0625 L 389.09375 277.0625 L 389.875 276.21875 L 388.25 276.21875 L 389.03125 275.375 L 387.40625 275.375 L 388.1875 274.53125 L 386.5625 274.53125 L 387.34375 273.6875 L 385.71875 273.6875 L 386.5 272.84375 L 384.875 272.84375 L 385.65625 272 L 383.96875 272 L 384.78125 271.125 L 383.15625 271.125 L 383.9375 270.28125 L 382.3125 270.28125 L 383.09375 269.4375 L 381.46875 269.4375 L 382.25 268.59375 L 380.625 268.59375 L 381.40625 267.75 L 379.78125 267.75 L 380.5625 266.90625 L 378.9375 266.90625 L 379.71875 266.0625 L 378.09375 266.0625 L 378.875 265.21875 L 377.25 265.21875 L 378.03125 264.375 L 376.40625 264.375 L 377.1875 263.53125 L 375.5625 263.53125 L 376.34375 262.6875 L 374.71875 262.6875 L 375.5 261.84375 L 373.875 261.84375 L 374.65625 261 L 373.03125 261 L 373.8125 260.15625 L 372.1875 260.15625 L 372.96875 259.3125 L 371.34375 259.3125 L 372.125 258.46875 L 370.4375 258.46875 L 371.25 257.59375 L 369.625 257.59375 L 370.40625 256.75 L 368.78125 256.75 L 369.5625 255.90625 L 367.9375 255.90625 L 368.71875 255.0625 L 367.09375 255.0625 L 367.875 254.21875 L 366.25 254.21875 L 367.03125 253.375 L 365.40625 253.375 L 366.1875 252.53125 L 364.5625 252.53125 L 365.34375 251.6875 L 363.71875 251.6875 L 364.5 250.84375 L 362.875 250.84375 L 363.65625 250 L 362.03125 250 L 362.8125 249.15625 L 361.1875 249.15625 L 361.96875 248.3125 L 360.34375 248.3125 L 361.125 247.46875 L 359.5 247.46875 L 360.28125 246.625 L 358.65625 246.625 L 359.4375 245.78125 L 357.75 245.78125 L 358.5625 244.90625 L 356.9375 244.90625 L 357.71875 244.0625 L 356.09375 244.0625 L 356.875 243.21875 L 355.25 243.21875 L 356.03125 242.375 L 354.40625 242.375 L 355.1875 241.53125 L 353.5625 241.53125 L 354.34375 240.6875 L 352.71875 240.6875 L 353.5 239.84375 L 351.875 239.84375 L 352.65625 239 L 351.03125 239 L 351.8125 238.15625 L 350.1875 238.15625 L 350.96875 237.3125 L 349.34375 237.3125 L 350.125 236.46875 L 348.5 236.46875 L 349.28125 235.625 L 347.65625 235.625 L 348.4375 234.78125 L 346.8125 234.78125 L 347.59375 233.9375 L 345.96875 233.9375 L 346.75 233.09375 L 345.125 233.09375 L 345.90625 232.25 L 344.21875 232.25 L 345.03125 231.375 L 343.40625 231.375 L 344.1875 230.53125 L 342.5625 230.53125 L 343.34375 229.6875 L 341.71875 229.6875 L 342.5 228.84375 L 340.875 228.84375 L 341.65625 228 L 340.03125 228 L 340.8125 227.15625 L 339.1875 227.15625 L 339.96875 226.3125 L 338.34375 226.3125 L 339.125 225.46875 L 337.5 225.46875 L 338.28125 224.625 L 336.65625 224.625 L 337.4375 223.78125 L 335.8125 223.78125 L 336.59375 222.9375 L 334.96875 222.9375 L 335.75 222.09375 L 334.125 222.09375 L 334.90625 221.25 L 333.28125 221.25 L 334.0625 220.40625 L 332.4375 220.40625 L 333.21875 219.5625 L 331.53125 219.5625 L 332.34375 218.6875 L 330.71875 218.6875 L 331.5 217.84375 L 329.875 217.84375 L 330.65625 217 L 329.03125 217 L 329.8125 216.15625 L 328.1875 216.15625 L 328.96875 215.3125 L 327.34375 215.3125 L 328.125 214.46875 L 326.5 214.46875 L 327.28125 213.625 L 325.65625 213.625 L 326.4375 212.78125 L 324.8125 212.78125 L 325.59375 211.9375 L 323.96875 211.9375 L 324.75 211.09375 L 323.125 211.09375 L 323.90625 210.25 L 322.28125 210.25 L 323.0625 209.40625 L 321.4375 209.40625 L 322.21875 208.5625 L 320.59375 208.5625 L 321.375 207.71875 L 319.75 207.71875 L 320.53125 206.875 L 318.90625 206.875 L 319.6875 206.03125 L 318 206.03125 L 318.8125 205.15625 L 317.1875 205.15625 L 317.96875 204.3125 L 316.34375 204.3125 L 317.125 203.46875 L 315.5 203.46875 L 316.28125 202.625 L 314.65625 202.625 L 315.4375 201.78125 L 313.8125 201.78125 L 314.59375 200.9375 L 312.96875 200.9375 L 313.75 200.09375 L 312.125 200.09375 L 312.90625 199.25 L 311.28125 199.25 L 312.0625 198.40625 L 310.4375 198.40625 L 311.21875 197.5625 L 309.59375 197.5625 L 310.375 196.71875 L 308.75 196.71875 L 309.53125 195.875 L 307.90625 195.875 L 308.6875 195.03125 L 307.0625 195.03125 L 307.84375 194.1875 L 306.21875 194.1875 L 307 193.34375 L 305.3125 193.34375 L 306.125 192.46875 L 304.5 192.46875 L 305.28125 191.625 L 303.65625 191.625 L 304.4375 190.78125 L 302.8125 190.78125 L 303.59375 189.9375 L 301.96875 189.9375 L 302.75 189.09375 L 301.125 189.09375 L 301.90625 188.25 L 300.28125 188.25 L 301.0625 187.40625 L 299.4375 187.40625 L 300.21875 186.5625 L 298.59375 186.5625 L 299.375 185.71875 L 297.75 185.71875 L 298.53125 184.875 L 296.90625 184.875 L 297.6875 184.03125 L 296.0625 184.03125 L 296.84375 183.1875 L 295.21875 183.1875 L 296 182.34375 L 294.375 182.34375 L 295.15625 181.5 L 293.53125 181.5 L 294.3125 180.65625 L 292.625 180.65625 L 293.4375 179.78125 L 291.8125 179.78125 L 292.59375 178.9375 L 290.96875 178.9375 L 291.75 178.09375 L 290.125 178.09375 L 290.90625 177.25 L 289.28125 177.25 L 290.0625 176.40625 L 288.4375 176.40625 L 289.21875 175.5625 L 287.59375 175.5625 L 288.375 174.71875 L 286.75 174.71875 L 287.53125 173.875 L 285.90625 173.875 L 286.6875 173.03125 L 285.0625 173.03125 L 285.84375 172.1875 L 284.21875 172.1875 L 285 171.34375 L 283.375 171.34375 L 284.15625 170.5 L 282.53125 170.5 L 283.3125 169.65625 L 281.6875 169.65625 L 282.46875 168.8125 L 280.84375 168.8125 L 281.625 167.96875 L 280 167.96875 L 280.78125 167.125 L 279.09375 167.125 L 279.90625 166.25 L 278.28125 166.25 L 279.0625 165.40625 L 277.4375 165.40625 L 278.21875 164.5625 L 276.59375 164.5625 L 277.375 163.71875 L 275.75 163.71875 L 276.53125 162.875 L 274.90625 162.875 L 275.6875 162.03125 L 274.0625 162.03125 L 274.84375 161.1875 L 273.21875 161.1875 L 274 160.34375 L 272.375 160.34375 L 273.15625 159.5 L 271.53125 159.5 L 272.3125 158.65625 L 270.6875 158.65625 L 271.46875 157.8125 L 269.84375 157.8125 L 270.625 156.96875 L 269 156.96875 L 269.78125 156.125 L 268.15625 156.125 L 268.9375 155.28125 L 267.3125 155.28125 L 268.09375 154.4375 L 266.40625 154.4375 L 267.21875 153.5625 L 265.59375 153.5625 L 266.375 152.71875 L 264.75 152.71875 L 265.53125 151.875 L 263.90625 151.875 L 264.6875 151.03125 L 263.0625 151.03125 L 263.84375 150.1875 L 262.21875 150.1875 L 263 149.34375 L 261.375 149.34375 L 262.15625 148.5 L 260.53125 148.5 L 261.3125 147.65625 L 259.6875 147.65625 L 260.46875 146.8125 L 258.84375 146.8125 L 259.625 145.96875 L 258 145.96875 L 258.78125 145.125 L 257.15625 145.125 L 257.9375 144.28125 L 256.3125 144.28125 L 257.09375 143.4375 L 255.46875 143.4375 L 256.25 142.59375 L 254.625 142.59375 L 255.40625 141.75 L 253.78125 141.75 L 254.5625 140.90625 L 252.875 140.90625 L 253.6875 140.03125 L 252.0625 140.03125 L 252.84375 139.1875 L 251.21875 139.1875 L 252 138.34375 L 250.375 138.34375 L 251.15625 137.5 L 249.53125 137.5 L 250.3125 136.65625 L 248.6875 136.65625 L 249.46875 135.8125 L 247.84375 135.8125 L 248.625 134.96875 L 247 134.96875 L 247.78125 134.125 L 246.15625 134.125 L 246.9375 133.28125 L 245.3125 133.28125 L 246.09375 132.4375 L 244.46875 132.4375 L 245.25 131.59375 L 243.625 131.59375 L 244.40625 130.75 L 242.78125 130.75 L 243.5625 129.90625 L 241.9375 129.90625 L 242.71875 129.0625 L 241.09375 129.0625 L 241.875 128.21875 L 240.1875 128.21875 L 241 127.34375 L 239.375 127.34375 L 240.15625 126.5 L 238.53125 126.5 L 239.3125 125.65625 L 237.6875 125.65625 L 238.46875 124.8125 L 236.84375 124.8125 L 237.625 123.96875 L 236 123.96875 L 236.78125 123.125 L 235.15625 123.125 L 235.9375 122.28125 L 234.3125 122.28125 L 235.09375 121.4375 L 233.46875 121.4375 L 234.25 120.59375 L 232.625 120.59375 L 233.40625 119.75 L 231.78125 119.75 L 232.5625 118.90625 L 230.9375 118.90625 L 231.71875 118.0625 L 230.09375 118.0625 L 230.875 117.21875 L 229.25 117.21875 L 230.03125 116.375 L 228.40625 116.375 L 229.1875 115.53125 L 227.5625 115.53125 L 228.34375 114.6875 L 226.65625 114.6875 L 227.46875 113.8125 L 225.84375 113.8125 L 226.625 112.96875 L 225 112.96875 L 225.78125 112.125 L 224.15625 112.125 L 224.9375 111.28125 L 223.3125 111.28125 L 224.09375 110.4375 L 222.46875 110.4375 L 223.25 109.59375 L 221.625 109.59375 L 222.40625 108.75 L 206.34375 108.75 L 206.34375 108.65625 L 205.5 108.65625 L 205.5 107.8125 L 204.65625 107.8125 L 204.65625 106.96875 L 203.8125 106.96875 L 203.8125 106.125 L 202.96875 106.125 L 202.96875 105.28125 L 202.125 105.28125 L 202.125 104.4375 L 201.25 104.4375 L 201.25 103.5625 L 200.40625 103.5625 L 200.40625 102.71875 L 199.5625 102.71875 L 199.5625 101.875 L 198.71875 101.875 L 198.71875 101.03125 L 197.875 101.03125 L 197.875 100.1875 L 197.03125 100.1875 L 197.03125 99.34375 L 196.1875 99.34375 L 196.1875 98.5 L 195.34375 98.5 L 195.34375 97.65625 L 194.5 97.65625 L 194.5 96.8125 L 193.65625 96.8125 L 193.65625 95.96875 L 192.8125 95.96875 L 192.8125 95.125 L 191.96875 95.125 L 191.96875 94.28125 L 191.125 94.28125 L 191.125 93.4375 L 190.28125 93.4375 L 190.28125 92.59375 L 189.4375 92.59375 L 189.4375 91.75 L 188.59375 91.75 L 188.59375 90.90625 L 187.71875 90.90625 L 187.71875 90.03125 L 186.875 90.03125 L 186.875 89.1875 L 186.03125 89.1875 L 186.03125 88.34375 L 185.1875 88.34375 L 185.1875 87.5 L 184.34375 87.5 L 184.34375 86.65625 L 183.5 86.65625 L 183.5 85.8125 L 182.65625 85.8125 L 182.65625 84.96875 L 166.09375 84.96875 L 166.09375 94.28125 L 165.6875 94.28125 L 165.6875 93.4375 L 164.84375 93.4375 L 164.84375 92.59375 L 164 92.59375 L 164 91.75 L 163.15625 91.75 L 163.15625 90.90625 L 162.28125 90.90625 L 162.28125 90.03125 L 161.4375 90.03125 L 161.4375 89.1875 L 160.59375 89.1875 L 160.59375 88.34375 L 159.75 88.34375 L 159.75 87.5 L 158.90625 87.5 L 158.90625 86.65625 L 158.0625 86.65625 L 158.0625 85.8125 L 157.21875 85.8125 L 157.21875 84.96875 L 140.65625 84.96875 z "
       id="path8277"
       clip-path="url(#clipPath9194)" />
    <path
       style="fill:#ffffff;fill-opacity:1;fill-rule:nonzero;stroke:none;opacity:1"
       d="M 139.8125 84.125 L 139.8125 115.21875 C 134.70706 109.40651 128.64668 106.50006 121.65625 106.5 C 114.0374 106.50006 107.73757 109.26355 102.75 114.78125 C 97.762409 120.29906 95.281245 128.36527 95.28125 138.96875 C 95.281245 149.33666 97.843706 157.39485 102.96875 163.1875 C 108.09377 168.98017 114.25064 171.875 121.4375 171.875 C 124.97197 171.875 128.46186 170.99762 131.9375 169.25 C 135.41305 167.50239 138.44725 164.85504 141 161.28125 L 141 170.46875 L 156.375 170.46875 L 156.375 84.125 L 139.8125 84.125 z M 165.25 84.125 L 165.25 170.46875 L 181.8125 170.46875 L 181.8125 150.4375 L 189.53125 142.375 L 205.25 170.46875 L 223.09375 170.46875 L 200.1875 130.78125 L 221.5625 107.90625 L 201.1875 107.90625 L 181.8125 129.9375 L 181.8125 84.125 L 165.25 84.125 z M 61.53125 106.5 C 52.537869 106.50006 45.905666 108.33972 41.625 112.03125 C 37.344311 115.7229 35.187495 120.26797 35.1875 125.6875 C 35.187495 131.6962 37.676682 136.40387 42.625 139.78125 C 46.198764 142.21616 54.647391 144.89835 68 147.84375 C 70.866838 148.5114 72.706489 149.24583 73.53125 150.03125 C 74.316652 150.85599 74.718705 151.89955 74.71875 153.15625 C 74.718705 155.00206 73.984281 156.46289 72.53125 157.5625 C 70.371233 159.1334 67.155645 159.93751 62.875 159.9375 C 58.987013 159.93751 55.972451 159.10658 53.8125 157.4375 C 51.652501 155.76844 50.206881 153.3141 49.5 150.09375 L 32.90625 152.625 C 34.437866 158.55513 37.688295 163.23154 42.65625 166.6875 C 47.624179 170.14346 54.352885 171.875 62.875 171.875 C 72.261039 171.875 79.364979 169.81109 84.15625 165.6875 C 88.947413 161.56392 91.343689 156.64002 91.34375 150.90625 C 91.343689 145.64379 89.612154 141.5392 86.15625 138.59375 C 82.660962 135.68763 76.504087 133.25292 67.6875 131.25 C 58.870838 129.24715 53.711074 127.69342 52.21875 126.59375 C 51.119104 125.76908 50.562479 124.77196 50.5625 123.59375 C 50.562479 122.21927 51.212015 121.08279 52.46875 120.21875 C 54.353797 119.00136 57.453246 118.4063 61.8125 118.40625 C 65.268428 118.4063 67.947027 119.04782 69.8125 120.34375 C 71.677893 121.63979 72.926078 123.50266 73.59375 125.9375 L 89.21875 123.0625 C 87.6478 117.6037 84.78781 113.47589 80.625 110.6875 C 76.462089 107.89923 70.092573 106.50006 61.53125 106.5 z M 126.03125 119.15625 C 130.07626 119.1563 133.37673 120.74488 135.96875 123.90625 C 138.56067 127.06771 139.87495 132.25071 139.875 139.4375 C 139.87495 145.87818 138.54547 150.69755 135.875 153.9375 C 133.20444 157.17748 129.96562 158.81251 126.15625 158.8125 C 121.365 158.81251 117.60799 156.66372 114.9375 152.34375 C 113.09168 149.35908 112.18748 144.52007 112.1875 137.84375 C 112.18748 131.63876 113.50535 126.96594 116.15625 123.84375 C 118.8071 120.72165 122.10399 119.1563 126.03125 119.15625 z "
       id="rect3889" />
  </g>
</svg>
