<?xml version="1.0" encoding="UTF-8" standalone="no"?>
<!-- Created with Inkscape (http://www.inkscape.org/) -->

<svg
   xmlns:dc="http://purl.org/dc/elements/1.1/"
   xmlns:cc="http://creativecommons.org/ns#"
   xmlns:rdf="http://www.w3.org/1999/02/22-rdf-syntax-ns#"
   xmlns:svg="http://www.w3.org/2000/svg"
   xmlns="http://www.w3.org/2000/svg"
   xmlns:sodipodi="http://sodipodi.sourceforge.net/DTD/sodipodi-0.dtd"
   xmlns:inkscape="http://www.inkscape.org/namespaces/inkscape"
   width="640"
   height="1100"
   id="svg2"
   version="1.1"
   inkscape:version="0.48.4 r9939"
   sodipodi:docname="portalmods.svg">
  <defs
     id="defs4" />
  <sodipodi:namedview
     id="base"
     pagecolor="#ffffff"
     bordercolor="#666666"
     borderopacity="1.0"
     inkscape:pageopacity="0.0"
     inkscape:pageshadow="2"
     inkscape:zoom="5.6"
     inkscape:cx="110.65266"
     inkscape:cy="77.555669"
     inkscape:document-units="px"
     inkscape:current-layer="layer8"
     showgrid="true"
     inkscape:snap-bbox="true">
    <inkscape:grid
       type="xygrid"
       id="grid2985"
       empspacing="5"
       visible="true"
       enabled="true"
       snapvisiblegridlinesonly="true"
       spacingx="5px"
       spacingy="5px" />
  </sodipodi:namedview>
  <metadata
     id="metadata7">
    <rdf:RDF>
      <cc:Work
         rdf:about="">
        <dc:format>image/svg+xml</dc:format>
        <dc:type
           rdf:resource="http://purl.org/dc/dcmitype/StillImage" />
        <dc:title></dc:title>
      </cc:Work>
    </rdf:RDF>
  </metadata>
  <g
     inkscape:label="Layer 1"
     inkscape:groupmode="layer"
     id="layer1"
     transform="translate(0,47.63782)"
     style="display:inline">
    <rect
       style="fill:#b7c8c4;fill-opacity:1;fill-rule:nonzero;stroke:none"
       id="rect2987"
       width="650"
       height="150"
       x="0"
       y="-47.637817" />
  </g>
  <g
     inkscape:groupmode="layer"
     id="layer2"
     inkscape:label="PORTAL"
     transform="translate(0,100)">
    <text
       xml:space="preserve"
       style="font-size:85.54189301px;font-style:normal;font-variant:normal;font-weight:normal;font-stretch:normal;line-height:125%;letter-spacing:0px;word-spacing:0px;fill:#1c2422;fill-opacity:1;stroke:none;font-family:DIN 1451 Engschrift;-inkscape-font-specification:DIN 1451 Engschrift"
       x="8.8158665"
       y="-29.350117"
       id="text2994"
       sodipodi:linespacing="125%"><tspan
         sodipodi:role="line"
         id="tspan2996"
         x="8.8158665"
         y="-29.350117">SOURCE SDK LAUNCHER</tspan></text>
    <text
       xml:space="preserve"
       style="font-size:94.53282928px;font-style:normal;font-variant:normal;font-weight:normal;font-stretch:normal;line-height:125%;letter-spacing:0px;word-spacing:0px;fill:#6f918a;fill-opacity:1;stroke:none;font-family:DIN 1451 Engschrift;-inkscape-font-specification:DIN 1451 Engschrift"
       x="5.0841084"
       y="43.620983"
       id="text2994-1"
       sodipodi:linespacing="125%"><tspan
         sodipodi:role="line"
         id="tspan2996-7"
         x="5.0841084"
         y="43.620983">PORTAL MODS</tspan></text>
  </g>
  <g
     inkscape:groupmode="layer"
     id="layer6"
     inkscape:label="APPLICATIONS"
     transform="translate(0,100)">
    <rect
       style="fill:#dbe3e2;fill-opacity:1;fill-rule:nonzero;stroke:none"
       id="rect3031"
       width="650"
       height="50"
       x="0"
       y="49.999996" />
    <rect
       style="fill:#dbe3e2;fill-opacity:1;fill-rule:nonzero;stroke:none"
       id="rect3031-8"
       width="650"
       height="50"
       x="0"
       y="400" />
    <rect
       style="fill:#536c67;fill-opacity:1;fill-rule:nonzero;stroke:none"
       id="rect3020-8"
       width="650"
       height="100"
       x="0"
       y="450" />
    <rect
       style="fill:#93aca7;fill-opacity:1;fill-rule:nonzero;stroke:none"
       id="rect3023-2"
       width="650"
       height="100"
       x="0"
       y="550" />
    <rect
       style="fill:#dbe3e2;fill-opacity:1;fill-rule:nonzero;stroke:none"
       id="rect3031-8-5"
       width="650"
       height="50"
       x="0"
       y="650" />
    <rect
       style="fill:#536c67;fill-opacity:1;fill-rule:nonzero;stroke:none"
       id="rect3020-8-5"
       width="650"
       height="100"
       x="0"
       y="700" />
    <rect
       style="fill:#93aca7;fill-opacity:1;fill-rule:nonzero;stroke:none"
       id="rect3023-2-1"
       width="650"
       height="100"
       x="0"
       y="800" />
  </g>
  <g
     inkscape:groupmode="layer"
     id="layer3"
     inkscape:label="HAMMER"
     transform="translate(0,100)">
    <rect
       style="fill:#536c67;fill-opacity:1;fill-rule:nonzero;stroke:none"
       id="rect3020"
       width="650"
       height="100"
       x="0"
       y="99.999992" />
  </g>
  <g
     inkscape:groupmode="layer"
     id="layer4"
     inkscape:label="MDL VIEWER"
     transform="translate(0,100)">
    <rect
       style="fill:#93aca7;fill-opacity:1;fill-rule:nonzero;stroke:none"
       id="rect3023"
       width="650"
       height="100"
       x="0"
       y="200" />
    <rect
       style="fill:#dbe3e2;fill-opacity:1;fill-rule:nonzero;stroke:none"
       id="rect3023-4"
       width="650"
       height="100"
       x="0"
       y="900" />
    <text
       xml:space="preserve"
       style="font-size:40px;font-style:normal;font-variant:normal;font-weight:normal;font-stretch:normal;line-height:125%;letter-spacing:0px;word-spacing:0px;fill:#1c2422;fill-opacity:1;stroke:none;font-family:DIN 1451 Engschrift;-inkscape-font-specification:DIN 1451 Engschrift"
       x="94.240013"
       y="962.15961"
       id="text3112-1-2-1"
       sodipodi:linespacing="125%"><tspan
         sodipodi:role="line"
         id="tspan3114-5-7-13"
         x="94.240013"
         y="962.15961"
         style="font-size:40px;font-style:normal;font-variant:normal;font-weight:bold;font-stretch:normal;fill:#1c2422;font-family:Kozuka Gothic Pr6N B;-inkscape-font-specification:Kozuka Gothic Pr6N B Bold">Additional Applications</tspan></text>
  </g>
  <g
     inkscape:groupmode="layer"
     id="layer5"
     inkscape:label="FACEPOSER"
     transform="translate(0,100)">
    <rect
       style="fill:#536c67;fill-opacity:1;fill-rule:nonzero;stroke:none"
       id="rect3026"
       width="650"
       height="100"
       x="0"
       y="300" />
  </g>
  <g
     inkscape:groupmode="layer"
     id="layer7"
     inkscape:label="text"
     transform="translate(0,100)">
    <text
       xml:space="preserve"
       style="font-size:40px;font-style:normal;font-variant:normal;font-weight:normal;font-stretch:normal;line-height:125%;letter-spacing:0px;word-spacing:0px;fill:#000000;fill-opacity:1;stroke:none;font-family:DIN 1451 Engschrift;-inkscape-font-specification:DIN 1451 Engschrift"
       x="10"
       y="89.999992"
       id="text3112"
       sodipodi:linespacing="125%"><tspan
         sodipodi:role="line"
         id="tspan3114"
         x="10"
         y="89.999992"
         style="font-style:normal;font-variant:normal;font-weight:bold;font-stretch:normal;fill:#1c2422;font-family:Kozuka Gothic Pr6N B;-inkscape-font-specification:Kozuka Gothic Pr6N B Bold">Applications</tspan></text>
    <text
       xml:space="preserve"
       style="font-size:40px;font-style:normal;font-variant:normal;font-weight:normal;font-stretch:normal;line-height:125%;letter-spacing:0px;word-spacing:0px;fill:#dbe3e2;fill-opacity:1;stroke:none;font-family:DIN 1451 Engschrift;-inkscape-font-specification:DIN 1451 Engschrift"
       x="94.750061"
       y="176.27927"
       id="text3112-1"
       sodipodi:linespacing="125%"><tspan
         sodipodi:role="line"
         id="tspan3114-5"
         x="94.750061"
         y="176.27927"
         style="font-size:70px;font-style:normal;font-variant:normal;font-weight:bold;font-stretch:normal;fill:#dbe3e2;font-family:Kozuka Gothic Pr6N B;-inkscape-font-specification:Kozuka Gothic Pr6N B Bold">Hammer Editor</tspan></text>
    <text
       xml:space="preserve"
       style="font-size:40px;font-style:normal;font-variant:normal;font-weight:normal;font-stretch:normal;line-height:125%;letter-spacing:0px;word-spacing:0px;fill:#374845;fill-opacity:1;stroke:none;font-family:DIN 1451 Engschrift;-inkscape-font-specification:DIN 1451 Engschrift"
       x="94.750061"
       y="276.27927"
       id="text3112-1-2"
       sodipodi:linespacing="125%"><tspan
         sodipodi:role="line"
         id="tspan3114-5-7"
         x="94.750061"
         y="276.27927"
         style="font-size:70px;font-style:normal;font-variant:normal;font-weight:bold;font-stretch:normal;fill:#374845;font-family:Kozuka Gothic Pr6N B;-inkscape-font-specification:Kozuka Gothic Pr6N B Bold">Model Viewer</tspan></text>
    <text
       xml:space="preserve"
       style="font-size:40px;font-style:normal;font-variant:normal;font-weight:normal;font-stretch:normal;line-height:125%;letter-spacing:0px;word-spacing:0px;fill:#dbe3e2;fill-opacity:1;stroke:none;font-family:DIN 1451 Engschrift;-inkscape-font-specification:DIN 1451 Engschrift"
       x="94.750061"
       y="379.125"
       id="text3112-1-6"
       sodipodi:linespacing="125%"><tspan
         sodipodi:role="line"
         id="tspan3114-5-1"
         x="94.750061"
         y="379.125"
         style="font-size:70px;font-style:normal;font-variant:normal;font-weight:bold;font-stretch:normal;fill:#dbe3e2;font-family:Kozuka Gothic Pr6N B;-inkscape-font-specification:Kozuka Gothic Pr6N B Bold">Face Poser</tspan></text>
    <text
       xml:space="preserve"
       style="font-size:40px;font-style:normal;font-variant:normal;font-weight:normal;font-stretch:normal;line-height:125%;letter-spacing:0px;word-spacing:0px;fill:#000000;fill-opacity:1;stroke:none;font-family:DIN 1451 Engschrift;-inkscape-font-specification:DIN 1451 Engschrift"
       x="10"
       y="440"
       id="text3112-4"
       sodipodi:linespacing="125%"><tspan
         sodipodi:role="line"
         id="tspan3114-2"
         x="10"
         y="440"
         style="font-style:normal;font-variant:normal;font-weight:bold;font-stretch:normal;fill:#1c2422;font-family:Kozuka Gothic Pr6N B;-inkscape-font-specification:Kozuka Gothic Pr6N B Bold">Documentation</tspan></text>
    <text
       xml:space="preserve"
       style="font-size:40px;font-style:normal;font-variant:normal;font-weight:normal;font-stretch:normal;line-height:125%;letter-spacing:0px;word-spacing:0px;fill:#dbe3e2;fill-opacity:1;stroke:none;font-family:DIN 1451 Engschrift;-inkscape-font-specification:DIN 1451 Engschrift"
       x="94.750061"
       y="524.125"
       id="text3112-1-3"
       sodipodi:linespacing="125%"><tspan
         sodipodi:role="line"
         id="tspan3114-5-2"
         x="94.750061"
         y="524.125"
         style="font-size:70px;font-style:normal;font-variant:normal;font-weight:bold;font-stretch:normal;fill:#dbe3e2;font-family:Kozuka Gothic Pr6N B;-inkscape-font-specification:Kozuka Gothic Pr6N B Bold">Release Notes</tspan></text>
    <text
       xml:space="preserve"
       style="font-size:40px;font-style:normal;font-variant:normal;font-weight:normal;font-stretch:normal;line-height:125%;letter-spacing:0px;word-spacing:0px;fill:#374845;fill-opacity:1;stroke:none;font-family:DIN 1451 Engschrift;-inkscape-font-specification:DIN 1451 Engschrift"
       x="97.745018"
       y="619.3125"
       id="text3112-1-2-2"
       sodipodi:linespacing="125%"><tspan
         sodipodi:role="line"
         id="tspan3114-5-7-1"
         x="97.745018"
         y="619.3125"
         style="font-size:55px;font-style:normal;font-variant:normal;font-weight:bold;font-stretch:normal;fill:#374845;font-family:Kozuka Gothic Pr6N B;-inkscape-font-specification:Kozuka Gothic Pr6N B Bold">SDK Reference Docs</tspan></text>
    <text
       xml:space="preserve"
       style="font-size:40px;font-style:normal;font-variant:normal;font-weight:normal;font-stretch:normal;line-height:125%;letter-spacing:0px;word-spacing:0px;fill:#000000;fill-opacity:1;stroke:none;font-family:DIN 1451 Engschrift;-inkscape-font-specification:DIN 1451 Engschrift"
       x="7.0000381"
       y="689.5"
       id="text3112-4-6"
       sodipodi:linespacing="125%"><tspan
         sodipodi:role="line"
         id="tspan3114-2-8"
         x="7.0000381"
         y="689.5"
         style="font-style:normal;font-variant:normal;font-weight:bold;font-stretch:normal;fill:#1c2422;font-family:Kozuka Gothic Pr6N B;-inkscape-font-specification:Kozuka Gothic Pr6N B Bold">Links</tspan></text>
    <text
       xml:space="preserve"
       style="font-size:40px;font-style:normal;font-variant:normal;font-weight:normal;font-stretch:normal;line-height:125%;letter-spacing:0px;word-spacing:0px;fill:#dbe3e2;fill-opacity:1;stroke:none;font-family:DIN 1451 Engschrift;-inkscape-font-specification:DIN 1451 Engschrift"
       x="99.68"
       y="762.15961"
       id="text3112-1-3-5"
       sodipodi:linespacing="125%"><tspan
         sodipodi:role="line"
         id="tspan3114-5-2-7"
         x="99.68"
         y="762.15961"
         style="font-size:40px;font-style:normal;font-variant:normal;font-weight:bold;font-stretch:normal;fill:#dbe3e2;font-family:Kozuka Gothic Pr6N B;-inkscape-font-specification:Kozuka Gothic Pr6N B Bold">Valve Developer Community</tspan></text>
    <text
       xml:space="preserve"
       style="font-size:40px;font-style:normal;font-variant:normal;font-weight:normal;font-stretch:normal;line-height:125%;letter-spacing:0px;word-spacing:0px;fill:#374845;fill-opacity:1;stroke:none;font-family:DIN 1451 Engschrift;-inkscape-font-specification:DIN 1451 Engschrift"
       x="98.360016"
       y="864.23956"
       id="text3112-1-2-2-6"
       sodipodi:linespacing="125%"><tspan
         sodipodi:role="line"
         id="tspan3114-5-7-1-1"
         x="98.360016"
         y="864.23956"
         style="font-size:40px;font-style:normal;font-variant:normal;font-weight:bold;font-stretch:normal;fill:#374845;font-family:Kozuka Gothic Pr6N B;-inkscape-font-specification:Kozuka Gothic Pr6N B Bold">Softimage|XSI Mod Tool</tspan></text>
  </g>
  <g
     inkscape:groupmode="layer"
     id="layer8"
     inkscape:label="icons"
     transform="translate(0,100)">
    <path
       style="fill:#dbe3de;fill-opacity:1;fill-rule:nonzero;stroke:none"
       d="m 49.999999,124.93554 c -13.807119,0 -24.999999,11.19288 -24.999999,25 0,12.74835 9.543412,23.24676 21.874999,24.78515 l 0,-24.78515 -12.5,0 0,-15.625 31.25,0 0,15.625 -12.5,0 0,24.78515 c 12.331587,-1.53839 21.875,-12.0368 21.875,-24.78515 0,-13.80712 -11.192881,-25 -25,-25 z"
       id="path3341"
       inkscape:connector-curvature="0" />
    <path
       style="fill:#374845;fill-opacity:1;fill-rule:nonzero;stroke:none"
       d="m 49.999999,224.99999 c -13.807119,0 -24.999999,11.19288 -24.999999,25 0,13.80712 11.19288,25 24.999999,25 13.807119,0 25,-11.19288 25,-25 0,-13.80712 -11.192881,-25 -25,-25 z m -15.625,9.375 9.375,0 0,9.375 -9.375,0 0,-9.375 z m 15.625,0 15.625,31.25 -31.25,0 15.625,-31.25 z m 10.9375,0 c 2.588835,0 4.6875,2.09866 4.6875,4.6875 0,2.58884 -2.098665,4.6875 -4.6875,4.6875 -2.588835,0 -4.6875,-2.09866 -4.6875,-4.6875 0,-2.58884 2.098665,-4.6875 4.6875,-4.6875 z"
       id="path3341-8"
       inkscape:connector-curvature="0" />
    <path
       style="fill:#dbe3e2;fill-opacity:1;fill-rule:nonzero;stroke:none"
       d="m 49.999999,319.99999 c -16.568543,0 -29.999999,13.43146 -29.999999,30 0,16.56854 13.431456,30 29.999999,30 16.568543,0 30,-13.43146 30,-30 0,-16.56854 -13.431457,-30 -30,-30 z m -18.75,11.25 37.5,0 c 0,0 0,41.25 -18.75,41.25 -18.75,0 -18.75,-41.25 -18.75,-41.25 z m 7.5,7.5 7.5,7.5 0,-3.75 -7.5,-3.75 z m 22.5,0 -7.5,3.75 0,3.75 7.5,-7.5 z"
       id="path3341-9"
       inkscape:connector-curvature="0" />
    <path
       style="fill:#dbe3e2;fill-opacity:1;stroke:none"
       d="m 25,474.99999 0,50 49.999999,0 0,-40 -10,-10 -39.999999,0 z m 4.999999,7 10,0 0,5 -10,0 0,-5 z m 15,0 20,0 0,5 -20,0 0,-5 z m -10,10 25,0 0,5 -25,0 0,-5 z m -5,10 10,0 0,5 -10,0 0,-5 z m 15,0 20,0 0,5 -20,0 0,-5 z m -10,10 25,0 0,5 -25,0 0,-5 z"
       id="path4233"
       inkscape:connector-curvature="0" />
    <path
       inkscape:connector-curvature="0"
       style="fill:#374845;fill-opacity:1;stroke:none"
       d="m 25,574.99999 0,50 49.999999,0 0,-40 -10,-10 -39.999999,0 z m 4.999999,7 10,0 0,5 -10,0 0,-5 z m 15,0 20,0 0,5 -20,0 0,-5 z m -10,10 25,0 0,5 -25,0 0,-5 z m -5,10 10,0 0,5 -10,0 0,-5 z m 15,0 20,0 0,5 -20,0 0,-5 z m -10,10 25,0 0,5 -25,0 0,-5 z"
       id="path4233-2" />
    <path
       style="fill:#dbe3e2;fill-opacity:1;stroke:none"
       d="m 25,724.99999 0,50 49.999999,0 0,-20 -5,0 0,-10 5,0 0,-10 -10,-10 -39.999999,0 z m 49.999999,20 0,10 5,0 0,5 15,-10 -15,-10 0,5 -5,0 z m -45,-13 10,0 0,5 -10,0 0,-5 z m 15,0 20,0 0,5 -20,0 0,-5 z m -10,10 25,0 0,5 -25,0 0,-5 z m -5,10 10,0 0,5 -10,0 0,-5 z m 15,0 20,0 0,5 -20,0 0,-5 z m -10,10 25,0 0,5 -25,0 0,-5 z"
       id="path4233-3"
       inkscape:connector-curvature="0" />
    <path
       inkscape:connector-curvature="0"
       style="fill:#374845;fill-opacity:1;stroke:none"
       d="m 25,824.99999 0,50 49.999999,0 0,-20 -5,0 0,-10 5,0 0,-10 -10,-10 -39.999999,0 z m 49.999999,20 0,10 5,0 0,5 15,-10 -15,-10 0,5 -5,0 z m -45,-13 10,0 0,5 -10,0 0,-5 z m 15,0 20,0 0,5 -20,0 0,-5 z m -10,10 25,0 0,5 -25,0 0,-5 z m -5,10 10,0 0,5 -10,0 0,-5 z m 15,0 20,0 0,5 -20,0 0,-5 z m -10,10 25,0 0,5 -25,0 0,-5 z"
       id="path4233-3-3" />
    <path
       inkscape:connector-curvature="0"
       style="fill:#1c2422;fill-opacity:1;stroke:none"
       d="M 25,914.99999 25,965 l 49.999999,0 0,-20.00001 -5,0 0,-10 5,0 0,-10 -10,-10 -39.999999,0 z m 49.999999,20 0,10 5,0 0,5 15,-10 -15,-10 0,5 -5,0 z m -45,-13 10,0 0,5 -10,0 0,-5 z m 15,0 20,0 0,5 -20,0 0,-5 z m -10,10 25,0 0,5 -25,0 0,-5 z m -5,10 10,0 0,5 -10,0 0,-5 z m 15,0 20,0 0,5 -20,0 0,-5 z m -10,10 25,0 0,5 -25,0 0,-5 z"
       id="path4233-3-3-8" />
  </g>
</svg>
