<?xml version="1.0" encoding="UTF-8" standalone="no"?>
<!-- Created with Inkscape (http://www.inkscape.org/) -->

<svg
   xmlns:dc="http://purl.org/dc/elements/1.1/"
   xmlns:cc="http://creativecommons.org/ns#"
   xmlns:rdf="http://www.w3.org/1999/02/22-rdf-syntax-ns#"
   xmlns:svg="http://www.w3.org/2000/svg"
   xmlns="http://www.w3.org/2000/svg"
   xmlns:sodipodi="http://sodipodi.sourceforge.net/DTD/sodipodi-0.dtd"
   xmlns:inkscape="http://www.inkscape.org/namespaces/inkscape"
   width="32"
   height="32"
   id="svg2"
   version="1.1"
   inkscape:version="0.48.4 r9939"
   sodipodi:docname="back.svg"
   inkscape:export-filename="C:\Users\RyanAwesome\Documents\portalsdk\src\web_pressed.png"
   inkscape:export-xdpi="90"
   inkscape:export-ydpi="90">
  <defs
     id="defs4" />
  <sodipodi:namedview
     id="base"
     pagecolor="#ffffff"
     bordercolor="#666666"
     borderopacity="1.0"
     inkscape:pageopacity="0.0"
     inkscape:pageshadow="2"
     inkscape:zoom="15.839192"
     inkscape:cx="-0.19454655"
     inkscape:cy="19.643237"
     inkscape:document-units="px"
     inkscape:current-layer="layer1"
     showgrid="true"
     inkscape:snap-bbox="true">
    <inkscape:grid
       type="xygrid"
       id="grid2985"
       empspacing="5"
       visible="true"
       enabled="true"
       snapvisiblegridlinesonly="true" />
  </sodipodi:namedview>
  <metadata
     id="metadata7">
    <rdf:RDF>
      <cc:Work
         rdf:about="">
        <dc:format>image/svg+xml</dc:format>
        <dc:type
           rdf:resource="http://purl.org/dc/dcmitype/StillImage" />
        <dc:title></dc:title>
      </cc:Work>
    </rdf:RDF>
  </metadata>
  <g
     inkscape:label="Layer 1"
     inkscape:groupmode="layer"
     id="layer1"
     transform="translate(0,-1020.3622)">
    <path
       style="fill:#aa4400;fill-opacity:1;fill-rule:nonzero;stroke:none"
       d="M 16 0 C 7.163444 1.7763568e-015 2.6212348e-018 7.163444 0 16 C 0 24.836556 7.163444 32 16 32 C 24.836556 32 32 24.836556 32 16 C 32 7.163444 24.836556 -3.5500924e-015 16 0 z M 16 2 C 23.732001 2 30 8.2679987 30 16 C 30 23.732001 23.732001 30 16 30 C 8.2679987 30 2 23.732001 2 16 C 2 8.2679987 8.2679987 2 16 2 z "
       transform="translate(0,1020.3622)"
       id="path2987" />
    <path
       style="fill:#aa4400;fill-opacity:1;fill-rule:nonzero;stroke:none"
       d="M 16 6 C 11.892382 6 8.3514803 8.458556 6.8125 12 L 8 12 L 11 18 L 14 12 L 16 12 L 18 12 L 21 18 L 24 12 L 25.1875 12 C 23.64852 8.458556 20.107618 6 16 6 z M 16 12 L 11 22 L 6.46875 12.9375 C 6.157779 13.903794 6 14.93032 6 16 C 6 21.522847 10.477153 26 16 26 C 21.522847 26 26 21.522847 26 16 C 26 14.93032 25.842221 13.903794 25.53125 12.9375 L 21 22 L 16 12 z "
       transform="translate(0,1020.3622)"
       id="path3835" />
  </g>
</svg>
