<?xml version="1.0" encoding="UTF-8" standalone="no"?>
<!-- Created with Inkscape (http://www.inkscape.org/) -->

<svg
   xmlns:dc="http://purl.org/dc/elements/1.1/"
   xmlns:cc="http://creativecommons.org/ns#"
   xmlns:rdf="http://www.w3.org/1999/02/22-rdf-syntax-ns#"
   xmlns:svg="http://www.w3.org/2000/svg"
   xmlns="http://www.w3.org/2000/svg"
   xmlns:xlink="http://www.w3.org/1999/xlink"
   xmlns:sodipodi="http://sodipodi.sourceforge.net/DTD/sodipodi-0.dtd"
   xmlns:inkscape="http://www.inkscape.org/namespaces/inkscape"
   width="300"
   height="100"
   id="svg9792"
   version="1.1"
   inkscape:version="0.48.4 r9939"
   sodipodi:docname="New document 9"
   inkscape:export-filename="C:\Users\RyanAwesome\Documents\GitHub\portalsdk_cube\src\dropshadow.png"
   inkscape:export-xdpi="90"
   inkscape:export-ydpi="90">
  <sodipodi:namedview
     id="base"
     pagecolor="#ffffff"
     bordercolor="#666666"
     borderopacity="1.0"
     inkscape:pageopacity="0.0"
     inkscape:pageshadow="2"
     inkscape:zoom="3.959798"
     inkscape:cx="136.22865"
     inkscape:cy="40.842758"
     inkscape:document-units="px"
     inkscape:current-layer="layer1"
     showgrid="true"
     inkscape:snap-bbox="true">
    <inkscape:grid
       snapvisiblegridlinesonly="true"
       enabled="true"
       visible="true"
       empspacing="5"
       id="grid9800"
       type="xygrid" />
  </sodipodi:namedview>
  <defs
     id="defs9794">
    <linearGradient
       id="linearGradient11141">
      <stop
         style="stop-color:#000000;stop-opacity:1;"
         offset="0"
         id="stop11143" />
      <stop
         style="stop-color:#000000;stop-opacity:0;"
         offset="1"
         id="stop11145" />
    </linearGradient>
    <linearGradient
       inkscape:collect="always"
       xlink:href="#linearGradient11141"
       id="linearGradient11147"
       x1="195"
       y1="952.36218"
       x2="245"
       y2="1038.9647"
       gradientUnits="userSpaceOnUse" />
    <linearGradient
       inkscape:collect="always"
       xlink:href="#linearGradient11141"
       id="linearGradient11149"
       gradientUnits="userSpaceOnUse"
       x1="195.82901"
       y1="952.36218"
       x2="195.82901"
       y2="1017.3622" />
  </defs>
  <metadata
     id="metadata9797">
    <rdf:RDF>
      <cc:Work
         rdf:about="">
        <dc:format>image/svg+xml</dc:format>
        <dc:type
           rdf:resource="http://purl.org/dc/dcmitype/StillImage" />
        <dc:title></dc:title>
      </cc:Work>
    </rdf:RDF>
  </metadata>
  <g
     transform="translate(0,-952.36217)"
     id="layer1"
     inkscape:groupmode="layer"
     inkscape:label="Layer 1">
    <path
       style="fill:url(#linearGradient11149);stroke:none;fill-opacity:1;opacity:0.40000000000000002"
       d="m 0,952.36217 0,5 0.5,0 0,0.5 0.5,0 0,0.5 0.5,0 0,0.5 0.5,0 0,0.5 0.5,0 0,0.5 0.46875,0 0,0.46875 0.5,0 0,0.5 0.5,0 0,0.5 0.5,0 0,0.5 0.5,0 0,0.5 0.5,0 0,0.5 0.5,0 0,0.5 0.5,0 0,0.5 0.5,0 0,0.5 0.5,0 0,0.5 0.5,0 0,0.5 0.5,0 0,0.5 0.46875,0 0,0.46875 0.5,0 0,0.5 0.5,0 0,0.5 0.5,0 0,0.5 0.5,0 0,0.5 0.5,0 0,0.5 0.5,0 0,0.5 0.5,0 0,0.5 0.5,0 0,0.5 0.5,0 0,0.5 0.5,0 0,0.5 0.5,0 0,0.5 0.5,0 0,0.5 0.46875,0 0,0.46875 0.5,0 0,0.5 0.5,0 0,0.5 0.5,0 0,0.5 0.5,0 0,0.5 0.5,0 0,0.5 0.5,0 0,0.5 0.5,0 0,0.5 0.5,0 0,0.5 0.5,0 0,0.5 0.5,0 0,0.5 0.5,0 0,0.5 0.46875,0 0,0.46875 0.5,0 0,0.5 0.5,0 0,0.5 0.5,0 0,0.5 0.5,0 0,0.5 0.5,0 0,0.5 0.5,0 0,0.5 0.5,0 0,0.5 0.5,0 0,0.5 0.5,0 0,0.5 0.5,0 0,0.5 0.5,0 0,0.5 0.5,0 0,0.5 0.46875,0 0,0.46875 0.5,0 0,0.5 0.5,0 0,0.5 0.5,0 0,0.5 0.5,0 0,0.5 0.5,0 0,0.5 0.5,0 0,0.5 0.5,0 0,0.5 0.5,0 0,0.5 0.5,0 0,0.5 0.5,0 0,0.5 0.5,0 0,0.5 0.5,0 0,0.5 0.46875,0 0,0.46875 0.5,0 0,0.5 0.5,0 0,0.5 0.5,0 0,0.5 0.5,0 0,0.5 0.5,0 0,0.5 0.5,0 0,0.5 0.5,0 0,0.5 0.5,0 0,0.5 0.5,0 0,0.5 0.5,0 0,0.5 0.5,0 0,0.5 0.46875,0 0,0.46875 0.5,0 0,0.5 0.5,0 0,0.5 0.5,0 0,0.5 0.5,0 0,0.5 0.5,0 0,0.49998 0.5,0 0,0.5 0.5,0 0,0.5 0.5,0 0,0.5 0.5,0 0,0.5 0.5,0 0,0.5 0.5,0 0,0.5 0.5,0 0,0.5 0.46875,0 0,0.4688 0.5,0 0,0.5 0.5,0 0,0.5 0.5,0 0,0.5 0.5,0 0,0.5 0.5,0 0,0.5 0.5,0 0,0.5 0.5,0 0,0.5 0.5,0 0,0.5 0.5,0 0,0.5 0.5,0 0,0.5 0.5,0 0,0.5 0.46875,0 0,0.4687 0.5,0 0,0.5 0.5,0 0,0.5 0.5,0 0,0.5 0.5,0 0,0.5 0.5,0 0,0.5 0.5,0 0,0.5 0.5,0 0,0.5 0.5,0 0,0.5 0.5,0 0,0.5 0.5,0 0,0.5 0.5,0 0,0.5 0.5,0 0,0.5 0.46875,0 0,0.4688 0.5,0 0,0.5 0.5,0 0,0.5 0.5,0 0,0.5 0.5,0 0,0.5 0.5,0 0,0.5 0.5,0 0,0.5 0.5,0 0,0.5 0.5,0 0,0.5 0.5,0 0,0.5 0.5,0 0,0.5 0.5,0 0,0.5 0.46875,0 0,0.4687 0.5,0 0,0.5 0.5,0 0,0.5 0.5,0 0,0.5 0.5,0 0,0.5 0.5,0 0,0.5 0.5,0 0,0.5 0.5,0 0,0.5 0.5,0 0,0.5 0.5,0 0,0.5 0.5,0 0,0.5 0.5,0 0,0.5 0.5,0 0,0.5 0.46875,0 0,0.4688 0.5,0 0,0.5 0.5,0 0,0.5 0.5,0 0,0.5 0.5,0 0,0.5 0.5,0 0,0.5 0.5,0 0,0.5 0.5,0 0,0.5 0.5,0 0,0.5 0.5,0 0,0.5 0.5,0 0,0.5 0.5,0 0,0.5 0.5,0 0,0.5 0.46875,0 0,0.4687 0.5,0 0,0.5 0.5,0 0,0.5 0.5,0 0,0.5 0.5,0 0,0.5 0.5,0 0,0.5 0.5,0 0,0.5 0.5,0 0,0.5 0.5,0 0,0.5 0.5,0 0,0.5 0.5,0 0,0.5 0.5,0 0,0.5 0.46875,0 0,0.4688 0.5,0 0,0.5 0.5,0 0,0.5 0.5,0 0,0.5 0.5,0 0,0.5 0.5,0 0,0.5 0.5,0 0,0.5 0.5,0 0,0.5 0.5,0 0,0.5 0.5,0 0,0.5 0.5,0 0,0.5 0.5,0 0,0.5 0.5,0 0,0.5 0.46875,0 0,0.4687 0.5,0 0,0.5 0.5,0 0,0.5 0.5,0 0,0.5 0.5,0 0,0.5 0.5,0 0,0.5 0.5,0 0,0.5 0.5,0 0,0.5 0.5,0 0,0.5 0.5,0 0,0.5 0.5,0 0,0.5 0.5,0 0,0.5 0.46875,0 0,0.4688 0.5,0 0,0.5 0.5,0 0,0.5 0.5,0 0,0.5 0.5,0 0,0.5 0.5,0 0,0.5 300,0 0,-5 -0.5,0 0,-0.5 -0.5,0 0,-0.5 -0.5,0 0,-0.5 -0.5,0 0,-0.5 -0.5,0 0,-0.5 -0.46875,0 0,-0.4688 -0.5,0 0,-0.5 -0.5,0 0,-0.5 -0.5,0 0,-0.5 -0.5,0 0,-0.5 -0.5,0 0,-0.5 -0.5,0 0,-0.5 -0.5,0 0,-0.5 -0.5,0 0,-0.5 -0.5,0 0,-0.5 -0.5,0 0,-0.5 -0.5,0 0,-0.5 -0.46875,0 0,-0.4687 -0.5,0 0,-0.5 -0.5,0 0,-0.5 -0.5,0 0,-0.5 -0.5,0 0,-0.5 -0.5,0 0,-0.5 -0.5,0 0,-0.5 -0.5,0 0,-0.5 -0.5,0 0,-0.5 -0.5,0 0,-0.5 -0.5,0 0,-0.5 -0.5,0 0,-0.5 -0.5,0 0,-0.5 -0.46875,0 0,-0.4688 -0.5,0 0,-0.5 -0.5,0 0,-0.5 -0.5,0 0,-0.5 -0.5,0 0,-0.5 -0.5,0 0,-0.5 -0.5,0 0,-0.5 -0.5,0 0,-0.5 -0.5,0 0,-0.5 -0.5,0 0,-0.5 -0.5,0 0,-0.5 -0.5,0 0,-0.5 -0.46875,0 0,-0.4687 -0.5,0 0,-0.5 -0.5,0 0,-0.5 -0.5,0 0,-0.5 -0.5,0 0,-0.5 -0.5,0 0,-0.5 -0.5,0 0,-0.5 -0.5,0 0,-0.5 -0.5,0 0,-0.5 -0.5,0 0,-0.5 -0.5,0 0,-0.5 -0.5,0 0,-0.5 -0.5,0 0,-0.5 -0.46875,0 0,-0.4688 -0.5,0 0,-0.5 -0.5,0 0,-0.5 -0.5,0 0,-0.5 -0.5,0 0,-0.5 -0.5,0 0,-0.5 -0.5,0 0,-0.5 -0.5,0 0,-0.5 -0.5,0 0,-0.5 -0.5,0 0,-0.5 -0.5,0 0,-0.5 -0.5,0 0,-0.5 -0.5,0 0,-0.5 -0.46875,0 0,-0.4687 -0.5,0 0,-0.5 -0.5,0 0,-0.5 -0.5,0 0,-0.5 -0.5,0 0,-0.5 -0.5,0 0,-0.5 -0.5,0 0,-0.5 -0.5,0 0,-0.5 -0.5,0 0,-0.5 -0.5,0 0,-0.5 -0.5,0 0,-0.5 -0.5,0 0,-0.5 -0.46875,0 0,-0.4688 -0.5,0 0,-0.5 -0.5,0 0,-0.5 -0.5,0 0,-0.5 -0.5,0 0,-0.5 -0.5,0 0,-0.5 -0.5,0 0,-0.5 -0.5,0 0,-0.5 -0.5,0 0,-0.5 -0.5,0 0,-0.5 -0.5,0 0,-0.5 -0.5,0 0,-0.5 -0.5,0 0,-0.5 -0.46875,0 0,-0.4687 -0.5,0 0,-0.5 -0.5,0 0,-0.5 -0.5,0 0,-0.5 -0.5,0 0,-0.5 -0.5,0 0,-0.5 -0.5,0 0,-0.5 -0.5,0 0,-0.5 -0.5,0 0,-0.5 -0.5,0 0,-0.5 -0.5,0 0,-0.50003 -0.5,0 0,-0.5 -0.46875,0 0,-0.46875 -0.5,0 0,-0.5 -0.5,0 0,-0.5 -0.5,0 0,-0.5 -0.5,0 0,-0.5 -0.5,0 0,-0.5 -0.5,0 0,-0.5 -0.5,0 0,-0.5 -0.5,0 0,-0.5 -0.5,0 0,-0.5 -0.5,0 0,-0.5 -0.5,0 0,-0.5 -0.5,0 0,-0.5 -0.46875,0 0,-0.46875 -0.5,0 0,-0.5 -0.5,0 0,-0.5 -0.5,0 0,-0.5 -0.5,0 0,-0.5 -0.5,0 0,-0.5 -0.5,0 0,-0.5 -0.5,0 0,-0.5 -0.5,0 0,-0.5 -0.5,0 0,-0.5 -0.5,0 0,-0.5 -0.5,0 0,-0.5 -0.46875,0 0,-0.46875 -0.5,0 0,-0.5 -0.5,0 0,-0.5 -0.5,0 0,-0.5 -0.5,0 0,-0.5 -0.5,0 0,-0.5 -0.5,0 0,-0.5 -0.5,0 0,-0.5 -0.5,0 0,-0.5 -0.5,0 0,-0.5 -0.5,0 0,-0.5 -0.5,0 0,-0.5 -0.5,0 0,-0.5 -0.46875,0 0,-0.46875 -0.5,0 0,-0.5 -0.5,0 0,-0.5 -0.5,0 0,-0.5 -0.5,0 0,-0.5 -0.5,0 0,-0.5 -0.5,0 0,-0.5 -0.5,0 0,-0.5 -0.5,0 0,-0.5 -0.5,0 0,-0.5 -0.5,0 0,-0.5 -0.5,0 0,-0.5 -0.5,0 0,-0.5 -0.46875,0 0,-0.46875 -0.5,0 0,-0.5 -0.5,0 0,-0.5 -0.5,0 0,-0.5 -0.5,0 0,-0.5 -0.5,0 0,-0.5 -0.5,0 0,-0.5 -0.5,0 0,-0.5 -0.5,0 0,-0.5 -0.5,0 0,-0.5 -0.5,0 0,-0.5 -0.5,0 0,-0.5 -0.46875,0 0,-0.46875 -0.5,0 0,-0.5 -0.5,0 0,-0.5 -0.5,0 0,-0.5 -0.5,0 0,-0.5 -0.5,0 0,-0.5 -0.5,0 0,-0.5 -0.5,0 0,-0.5 -0.5,0 0,-0.5 -0.5,0 0,-0.5 -0.5,0 0,-0.5 -0.5,0 0,-0.5 -0.5,0 0,-0.5 -0.46875,0 0,-0.46875 -0.5,0 0,-0.5 -0.5,0 0,-0.5 -0.5,0 0,-0.5 -0.5,0 0,-0.5 -0.5,0 0,-0.5 -0.5,0 0,-0.5 -0.5,0 0,-0.5 -0.5,0 0,-0.5 -0.5,0 0,-0.5 -0.5,0 0,-0.5 -0.5,0 0,-0.5 -0.46875,0 0,-0.46875 -0.5,0 0,-0.5 -0.5,0 0,-0.5 -0.5,0 0,-0.5 -0.5,0 0,-0.5 -0.5,0 0,-0.5 -300,0 z"
       id="path9816"
       inkscape:connector-curvature="0" />
  </g>
</svg>
