<?xml version="1.0" encoding="UTF-8" standalone="no"?>
<!-- Created with Inkscape (http://www.inkscape.org/) -->

<svg
   xmlns:dc="http://purl.org/dc/elements/1.1/"
   xmlns:cc="http://creativecommons.org/ns#"
   xmlns:rdf="http://www.w3.org/1999/02/22-rdf-syntax-ns#"
   xmlns:svg="http://www.w3.org/2000/svg"
   xmlns="http://www.w3.org/2000/svg"
   xmlns:sodipodi="http://sodipodi.sourceforge.net/DTD/sodipodi-0.dtd"
   xmlns:inkscape="http://www.inkscape.org/namespaces/inkscape"
   width="256"
   height="256"
   id="svg2"
   version="1.1"
   inkscape:version="0.48.4 r9939"
   sodipodi:docname="portal_sdk.svg"
   inkscape:export-filename="C:\Users\RyanAwesome\Documents\source sdk\src\portal\48.png"
   inkscape:export-xdpi="16.875"
   inkscape:export-ydpi="16.875">
  <defs
     id="defs4" />
  <sodipodi:namedview
     id="base"
     pagecolor="#000000"
     bordercolor="#666666"
     borderopacity="1.0"
     inkscape:pageopacity="1"
     inkscape:pageshadow="2"
     inkscape:zoom="2.8"
     inkscape:cx="165.30136"
     inkscape:cy="114.72778"
     inkscape:document-units="px"
     inkscape:current-layer="text3983"
     showgrid="true"
     inkscape:snap-bbox="true">
    <inkscape:grid
       type="xygrid"
       id="grid2985"
       empspacing="5"
       visible="true"
       enabled="true"
       snapvisiblegridlinesonly="true"
       spacingx="10px"
       spacingy="10px" />
  </sodipodi:namedview>
  <metadata
     id="metadata7">
    <rdf:RDF>
      <cc:Work
         rdf:about="">
        <dc:format>image/svg+xml</dc:format>
        <dc:type
           rdf:resource="http://purl.org/dc/dcmitype/StillImage" />
        <dc:title></dc:title>
      </cc:Work>
    </rdf:RDF>
  </metadata>
  <g
     inkscape:label="Layer 1"
     inkscape:groupmode="layer"
     id="layer1"
     transform="translate(0,-796.36218)"
     style="display:inline">
    <path
       style="fill:#006680;fill-opacity:1;fill-rule:nonzero;stroke:none"
       d="m 131,799.64343 c -41.421355,0 -75,54.32259 -75,121.34375 0,67.02116 33.578645,121.37502 75,121.37502 41.42135,0 75,-54.35386 75,-121.37502 0,-67.02116 -33.57865,-121.34375 -75,-121.34375 z m 0,12.71875 c 37.08472,0 67.15625,48.62066 67.15625,108.625 0,60.00434 -30.07153,108.65622 -67.15625,108.65622 -37.084721,0 -67.15625,-48.65188 -67.15625,-108.65622 0,-60.00434 30.071529,-108.625 67.15625,-108.625 z"
       id="path3947"
       inkscape:connector-curvature="0" />
  </g>
  <g
     inkscape:groupmode="layer"
     id="layer2"
     inkscape:label="sdk">
    <g
       style="font-size:134.62315368999998000px;font-style:normal;font-variant:normal;font-weight:normal;font-stretch:normal;line-height:125%;letter-spacing:0px;word-spacing:0px;fill:#dbe3e2;fill-opacity:1;stroke:none;font-family:Arial;-inkscape-font-specification:Arial"
       id="text3983">
      <path
         style="font-weight:bold;letter-spacing:-5.88000011px;fill:#dbe3e2;-inkscape-font-specification:Arial Bold"
         d="m 50.3125,99.15625 c -10.03541,7e-5 -17.4421,2.06825 -22.21875,6.1875 -4.776676,4.11939 -7.156255,9.20254 -7.15625,15.25 -5e-6,6.70491 2.759588,11.95004 8.28125,15.71875 3.946926,2.68916 13.238958,5.65909 27.875,8.90625 -0.644304,-6.09757 -1.00269,-12.34691 -1.0625,-18.71875 -9.067448,-2.09526 -14.501218,-3.76398 -16.09375,-4.9375 -1.227057,-0.92022 -1.843772,-2.02902 -1.84375,-3.34375 -2.2e-5,-1.53374 0.691402,-2.78585 2.09375,-3.75 2.10346,-1.35845 5.573156,-2.03119 10.4375,-2.03125 2.175565,3e-5 4.076774,0.22724 5.6875,0.6875 0.268543,-4.62086 0.732822,-9.16977 1.3125,-13.625 -2.26077,-0.23651 -4.67867,-0.34373 -7.3125,-0.34375 z M 65.46875,101 c -0.879412,6.41012 -1.417752,13.03053 -1.5625,19.8125 l 17.3125,-3.1875 c -1.75297,-6.09129 -4.979861,-10.70103 -9.625,-13.8125 -1.712271,-1.14686 -3.745872,-2.08837 -6.125,-2.8125 z m -1.5625,27.5 c 0.311369,14.35376 2.350167,27.99308 5.78125,40.40625 2.208404,-0.99593 4.181199,-2.22974 5.875,-3.6875 5.346296,-4.60136 7.999932,-10.10188 8,-16.5 -6.8e-5,-5.87221 -1.924924,-10.46327 -5.78125,-13.75 -2.939339,-2.44388 -7.563264,-4.59728 -13.875,-6.46875 z m -27,19.3125 -18.53125,2.8125 c 1.709078,6.61724 5.331427,11.86237 10.875,15.71875 5.543544,3.85639 13.05296,5.78125 22.5625,5.78125 3.619314,0 6.930453,-0.29427 9.9375,-0.84375 -1.116743,-4.33515 -2.070692,-8.80248 -2.875,-13.375 -1.962733,0.57813 -4.319319,0.87501 -7.0625,0.875 -4.338473,1e-5 -7.714783,-0.91877 -10.125,-2.78125 -2.410269,-1.86244 -3.992465,-4.59402 -4.78125,-8.1875 z"
         id="path4013"
         inkscape:connector-curvature="0" />
      <path
         d="m 157.95254,170.54568 -17.15657,0 0,-10.25449 c -2.84852,3.98786 -6.2119,6.95684 -10.09016,8.90695 -3.87834,1.95011 -7.78951,2.92516 -11.73351,2.92516 -8.01957,0 -14.88876,-3.23192 -20.6076,-9.69576 -5.718861,-6.46382 -8.578285,-15.48032 -8.57828,-27.04952 -5e-6,-11.83207 2.78273,-20.82666 8.34821,-26.9838 5.56546,-6.15701 12.59899,-9.23555 21.10061,-9.23562 7.80038,7e-5 14.54906,3.24295 20.24606,9.72863 l 0,-34.707533 18.47124,0 z m -49.30047,-36.41661 c -3e-5,7.44988 1.0298,12.84006 3.08949,16.17055 2.97991,4.82051 7.14306,7.23075 12.48946,7.23074 4.25075,1e-5 7.86611,-1.80767 10.8461,-5.42305 2.97989,-3.61535 4.46985,-9.01648 4.46991,-16.20342 -6e-5,-8.0195 -1.4462,-13.79313 -4.33844,-17.3209 -2.89234,-3.52767 -6.59535,-5.29153 -11.10904,-5.29159 -4.3823,6e-5 -8.05244,1.74201 -11.01044,5.22585 -2.95805,3.48395 -4.43707,8.68789 -4.43704,15.61182 z"
         style="font-weight:bold;letter-spacing:-5.88000011px;fill:#dbe3e2;-inkscape-font-specification:Arial Bold"
         id="path4015"
         inkscape:connector-curvature="0" />
      <path
         d="m 169.68924,170.54568 0,-96.365983 18.47124,0 0,51.141023 21.62647,-24.5845 22.74395,0 -23.86143,25.50477 25.57052,44.30469 -19.91739,0 -17.55097,-31.35509 -8.61115,9.00555 0,22.34954 z"
         style="font-weight:bold;letter-spacing:-5.88000011px;fill:#dbe3e2;-inkscape-font-specification:Arial Bold"
         id="path4017"
         inkscape:connector-curvature="0" />
    </g>
  </g>
</svg>
