<?xml version="1.0" encoding="UTF-8" standalone="no"?>
<!-- Created with Inkscape (http://www.inkscape.org/) -->

<svg
   xmlns:dc="http://purl.org/dc/elements/1.1/"
   xmlns:cc="http://creativecommons.org/ns#"
   xmlns:rdf="http://www.w3.org/1999/02/22-rdf-syntax-ns#"
   xmlns:svg="http://www.w3.org/2000/svg"
   xmlns="http://www.w3.org/2000/svg"
   xmlns:sodipodi="http://sodipodi.sourceforge.net/DTD/sodipodi-0.dtd"
   xmlns:inkscape="http://www.inkscape.org/namespaces/inkscape"
   width="314"
   height="106"
   id="svg2"
   version="1.1"
   inkscape:version="0.48.4 r9939"
   sodipodi:docname="C:\Users\RYANAW~1\AppData\Local\Temp\ink_ext_XXXXXX.svgI4GKBX"
   inkscape:export-filename="C:\Users\RyanAwesome\Documents\portalsdk\src\sdklauncher_2.png"
   inkscape:export-xdpi="90">
  <sodipodi:namedview
     id="base"
     pagecolor="#000000"
     bordercolor="#666666"
     borderopacity="1.0"
     inkscape:pageopacity="0"
     inkscape:pageshadow="2"
     inkscape:zoom="3.959798"
     inkscape:cx="206.63692"
     inkscape:cy="61.4597"
     inkscape:document-units="px"
     inkscape:current-layer="layer1"
     showgrid="true"
     inkscape:snap-bbox="true">
    <inkscape:grid
       snapvisiblegridlinesonly="true"
       enabled="true"
       visible="true"
       empspacing="5"
       id="grid2985"
       type="xygrid" />
  </sodipodi:namedview>
  <defs
     id="defs4" />
  <metadata
     id="metadata7">
    <rdf:RDF>
      <cc:Work
         rdf:about="">
        <dc:format>image/svg+xml</dc:format>
        <dc:type
           rdf:resource="http://purl.org/dc/dcmitype/StillImage" />
        <dc:title />
      </cc:Work>
    </rdf:RDF>
  </metadata>
  <g
     transform="translate(0,-946.36218)"
     id="layer1"
     inkscape:groupmode="layer"
     inkscape:label="Layer 1">
    <rect
       y="942.36218"
       x="-5"
       height="110"
       width="320"
       id="rect3027"
       style="fill:#d45500;fill-opacity:1;fill-rule:nonzero;stroke:none" />
    <g
       style="font-size:40px;font-style:normal;font-variant:normal;font-weight:normal;font-stretch:normal;line-height:94.99999881%;letter-spacing:0px;word-spacing:0px;fill:#ffffff;fill-opacity:1;stroke:none;font-family:DIN 1451 Engschrift;-inkscape-font-specification:DIN 1451 Engschrift"
       id="text2987">
      <path
         d="m 10.987502,972.62781 4.40625,-0.67188 c 0.187495,0.85417 0.567703,1.50261 1.140625,1.94532 0.57291,0.44271 1.374992,0.66406 2.40625,0.66406 1.135407,0 1.989573,-0.20833 2.5625,-0.625 0.385405,-0.29167 0.578113,-0.68229 0.578125,-1.17188 -1.2e-5,-0.33333 -0.104178,-0.60937 -0.3125,-0.82812 -0.218761,-0.20833 -0.708344,-0.40104 -1.46875,-0.57813 -3.541673,-0.78124 -5.786463,-1.49478 -6.734375,-2.14062 -1.312502,-0.89583 -1.968751,-2.14062 -1.96875,-3.73438 -10e-7,-1.43748 0.567707,-2.64582 1.703125,-3.625 1.135413,-0.97915 2.895827,-1.46873 5.28125,-1.46875 2.270823,2e-5 3.958321,0.36981 5.0625,1.10938 1.104152,0.7396 1.864568,1.83334 2.28125,3.28125 l -4.140625,0.76562 c -0.177095,-0.64582 -0.513032,-1.14061 -1.007812,-1.48437 -0.494802,-0.34374 -1.200531,-0.51561 -2.117188,-0.51563 -1.156257,2e-5 -1.984381,0.16147 -2.484375,0.48438 -0.333339,0.22918 -0.500005,0.52605 -0.5,0.89062 -5e-6,0.31251 0.145828,0.57814 0.4375,0.79688 0.395827,0.29168 1.763013,0.70313 4.101563,1.23437 2.338529,0.53126 3.97134,1.1823 4.898437,1.95313 0.916651,0.78126 1.374984,1.8698 1.375,3.26562 -1.6e-5,1.52084 -0.635432,2.82813 -1.90625,3.92188 -1.270846,1.09375 -3.151053,1.64062 -5.640625,1.64062 -2.260423,0 -4.049484,-0.45833 -5.367187,-1.375 -1.317711,-0.91666 -2.179689,-2.16145 -2.585938,-3.73437 z"
         style="font-size:32px;font-weight:bold;text-align:center;line-height:94.99999881%;letter-spacing:-1.15000057px;text-anchor:middle;fill:#ffffff;font-family:Arial;-inkscape-font-specification:Arial Bold"
         id="path3138" />
      <path
         d="m 28.181251,968.83093 c -2e-6,-1.45832 0.359373,-2.86978 1.078125,-4.23437 0.718746,-1.36457 1.736975,-2.40624 3.054687,-3.125 1.317702,-0.71874 2.789054,-1.07811 4.414063,-1.07813 2.510404,2e-5 4.567694,0.81512 6.171875,2.44532 1.604149,1.63022 2.406231,3.69011 2.40625,6.17968 -1.9e-5,2.51043 -0.809914,4.59115 -2.429688,6.24219 -1.619806,1.65104 -3.658866,2.47656 -6.117187,2.47656 -1.520842,0 -2.971361,-0.34375 -4.351563,-1.03125 -1.380212,-0.6875 -2.429691,-1.69531 -3.148437,-3.02343 -0.718752,-1.32812 -1.078127,-2.94531 -1.078125,-4.85157 z m 4.5,0.23438 c -6e-6,1.64584 0.390618,2.90625 1.171875,3.78125 0.781242,0.875 1.744783,1.3125 2.890625,1.3125 1.145822,0 2.106758,-0.4375 2.882812,-1.3125 0.776028,-0.875 1.164049,-2.14583 1.164063,-3.8125 -1.4e-5,-1.62499 -0.388035,-2.87499 -1.164063,-3.75 -0.776054,-0.87499 -1.73699,-1.31249 -2.882812,-1.3125 -1.145842,1e-5 -2.109383,0.43751 -2.890625,1.3125 -0.781257,0.87501 -1.171881,2.13542 -1.171875,3.78125 z"
         style="font-size:32px;font-weight:bold;text-align:center;line-height:94.99999881%;letter-spacing:-1.15000057px;text-anchor:middle;fill:#ffffff;font-family:Arial;-inkscape-font-specification:Arial Bold"
         id="path3140" />
      <path
         d="m 58.531249,977.36218 0,-2.48437 c -0.604179,0.88542 -1.398449,1.58333 -2.382812,2.09375 -0.984385,0.51041 -2.023447,0.76562 -3.117188,0.76562 -1.11459,0 -2.114589,-0.24479 -3,-0.73437 -0.88542,-0.48958 -1.526045,-1.17708 -1.921875,-2.0625 -0.395836,-0.88542 -0.593752,-2.10937 -0.59375,-3.67188 l 0,-10.5 4.390625,0 0,7.625 c -7e-6,2.33334 0.08072,3.76303 0.242188,4.28907 0.161451,0.52604 0.455721,0.94271 0.882812,1.25 0.427075,0.30729 0.968741,0.46094 1.625,0.46093 0.74999,1e-5 1.421864,-0.20572 2.015625,-0.61718 0.593738,-0.41146 0.999988,-0.92188 1.21875,-1.53125 0.218737,-0.60937 0.328112,-2.10156 0.328125,-4.47657 l 0,-7 4.390625,0 0,16.59375 z"
         style="font-size:32px;font-weight:bold;text-align:center;line-height:94.99999881%;letter-spacing:-1.15000057px;text-anchor:middle;fill:#ffffff;font-family:Arial;-inkscape-font-specification:Arial Bold"
         id="path3142" />
      <path
         d="m 70.225001,977.36218 -4.390625,0 0,-16.59375 4.078125,0 0,2.35938 c 0.69791,-1.11457 1.325514,-1.84894 1.882813,-2.20313 0.557283,-0.35415 1.190095,-0.53123 1.898437,-0.53125 0.999989,2e-5 1.96353,0.27606 2.890625,0.82813 l -1.359375,3.82812 c -0.739594,-0.47915 -1.427093,-0.71873 -2.0625,-0.71875 -0.614592,2e-5 -1.135425,0.16929 -1.5625,0.50782 -0.42709,0.33855 -0.763028,0.95053 -1.007812,1.83593 -0.244798,0.88543 -0.367194,2.73959 -0.367188,5.5625 z"
         style="font-size:32px;font-weight:bold;text-align:center;line-height:94.99999881%;letter-spacing:-1.15000057px;text-anchor:middle;fill:#ffffff;font-family:Arial;-inkscape-font-specification:Arial Bold"
         id="path3144" />
      <path
         d="m 91.778121,965.67468 -4.328125,0.78125 c -0.145846,-0.86457 -0.476574,-1.51561 -0.992188,-1.95312 -0.515635,-0.43749 -1.184906,-0.65624 -2.007812,-0.65625 -1.093758,1e-5 -1.966153,0.37761 -2.617188,1.13281 -0.651047,0.75522 -0.976568,2.01824 -0.976562,3.78906 -6e-6,1.96876 0.330723,3.35938 0.992187,4.17188 0.661451,0.8125 1.549471,1.21875 2.664063,1.21875 0.833323,0 1.515614,-0.23698 2.046875,-0.71094 0.531238,-0.47395 0.906238,-1.28906 1.125,-2.44531 l 4.3125,0.73437 c -0.447933,1.97917 -1.307307,3.47396 -2.578125,4.48438 -1.270846,1.01041 -2.97397,1.51562 -5.109375,1.51562 -2.42709,0 -4.361984,-0.76562 -5.804688,-2.29687 -1.44271,-1.53125 -2.164063,-3.65104 -2.164062,-6.35938 -10e-7,-2.73957 0.723956,-4.87238 2.171875,-6.39843 1.447912,-1.52603 3.406243,-2.28905 5.875,-2.28907 2.020822,2e-5 3.627591,0.43491 4.820312,1.30469 1.192693,0.86981 2.049463,2.19533 2.570313,3.97656 z"
         style="font-size:32px;font-weight:bold;text-align:center;line-height:94.99999881%;letter-spacing:-1.15000057px;text-anchor:middle;fill:#ffffff;font-family:Arial;-inkscape-font-specification:Arial Bold"
         id="path3146" />
      <path
         d="m 103.58125,972.08093 4.375,0.73438 c -0.56251,1.60417 -1.45053,2.82552 -2.66406,3.66406 -1.21355,0.83854 -2.73178,1.25781 -4.55469,1.25781 -2.885421,0 -5.020835,-0.94271 -6.406248,-2.82812 -1.093751,-1.51042 -1.640626,-3.41666 -1.640625,-5.71875 -1e-6,-2.74999 0.718748,-4.90364 2.15625,-6.46094 1.437495,-1.55728 3.255202,-2.33592 5.453123,-2.33594 2.46874,2e-5 4.41666,0.81512 5.84375,2.44532 1.42707,1.63022 2.10936,4.12761 2.04688,7.49218 l -11.000003,0 c 0.03124,1.30209 0.385411,2.31511 1.0625,3.03907 0.677076,0.72396 1.520825,1.08594 2.531253,1.08593 0.68749,1e-5 1.26561,-0.18749 1.73437,-0.5625 0.46874,-0.37499 0.82291,-0.97916 1.0625,-1.8125 z m 0.25,-4.4375 c -0.0313,-1.27082 -0.35938,-2.23696 -0.98437,-2.89843 -0.62501,-0.66145 -1.38543,-0.99218 -2.28125,-0.99219 -0.958344,1e-5 -1.75001,0.34897 -2.375003,1.04687 -0.625006,0.69793 -0.932297,1.64585 -0.921875,2.84375 z"
         style="font-size:32px;font-weight:bold;text-align:center;line-height:94.99999881%;letter-spacing:-1.15000057px;text-anchor:middle;fill:#ffffff;font-family:Arial;-inkscape-font-specification:Arial Bold"
         id="path3148" />
      <path
         d="m 116.8125,972.62781 4.40625,-0.67188 c 0.18749,0.85417 0.5677,1.50261 1.14062,1.94532 0.57291,0.44271 1.375,0.66406 2.40625,0.66406 1.13541,0 1.98958,-0.20833 2.5625,-0.625 0.38541,-0.29167 0.57812,-0.68229 0.57813,-1.17188 -1e-5,-0.33333 -0.10418,-0.60937 -0.3125,-0.82812 -0.21876,-0.20833 -0.70835,-0.40104 -1.46875,-0.57813 -3.54167,-0.78124 -5.78646,-1.49478 -6.73438,-2.14062 -1.3125,-0.89583 -1.96875,-2.14062 -1.96875,-3.73438 0,-1.43748 0.56771,-2.64582 1.70313,-3.625 1.13541,-0.97915 2.89583,-1.46873 5.28125,-1.46875 2.27082,2e-5 3.95832,0.36981 5.0625,1.10938 1.10415,0.7396 1.86457,1.83334 2.28125,3.28125 l -4.14063,0.76562 c -0.17709,-0.64582 -0.51303,-1.14061 -1.00781,-1.48437 -0.4948,-0.34374 -1.20053,-0.51561 -2.11719,-0.51563 -1.15625,2e-5 -1.98438,0.16147 -2.48437,0.48438 -0.33334,0.22918 -0.50001,0.52605 -0.5,0.89062 -1e-5,0.31251 0.14583,0.57814 0.4375,0.79688 0.39583,0.29168 1.76301,0.70313 4.10156,1.23437 2.33853,0.53126 3.97134,1.1823 4.89844,1.95313 0.91665,0.78126 1.37498,1.8698 1.375,3.26562 -2e-5,1.52084 -0.63543,2.82813 -1.90625,3.92188 -1.27085,1.09375 -3.15105,1.64062 -5.64063,1.64062 -2.26042,0 -4.04948,-0.45833 -5.36718,-1.375 -1.31771,-0.91666 -2.17969,-2.16145 -2.58594,-3.73437 z"
         style="font-size:32px;font-weight:bold;text-align:center;line-height:94.99999881%;letter-spacing:-1.15000057px;text-anchor:middle;fill:#ffffff;font-family:Arial;-inkscape-font-specification:Arial Bold"
         id="path3150" />
      <path
         d="m 150.24062,977.36218 -4.07812,0 0,-2.4375 c -0.6771,0.94792 -1.47658,1.65365 -2.39844,2.11719 -0.92189,0.46354 -1.85157,0.69531 -2.78906,0.69531 -1.90626,0 -3.53907,-0.76823 -4.89844,-2.30468 -1.35938,-1.53646 -2.03906,-3.67969 -2.03906,-6.42969 0,-2.81249 0.66145,-4.95051 1.98437,-6.41406 1.32291,-1.46353 2.99479,-2.1953 5.01563,-2.19532 1.85415,2e-5 3.45832,0.77085 4.8125,2.3125 l 0,-8.25 4.39062,0 z m -11.71875,-8.65625 c 0,1.77084 0.24479,3.05209 0.73438,3.84375 0.70832,1.14584 1.69791,1.71876 2.96875,1.71875 1.0104,1e-5 1.86978,-0.42968 2.57812,-1.28906 0.70832,-0.85937 1.06249,-2.14322 1.0625,-3.85156 -1e-5,-1.90624 -0.34376,-3.27864 -1.03125,-4.11719 -0.68751,-0.83853 -1.56772,-1.2578 -2.64062,-1.25781 -1.04168,1e-5 -1.91407,0.41407 -2.61719,1.24219 -0.70313,0.82813 -1.05469,2.06511 -1.05469,3.71093 z"
         style="font-size:32px;font-weight:bold;text-align:center;line-height:94.99999881%;letter-spacing:-1.15000057px;text-anchor:middle;fill:#ffffff;font-family:Arial;-inkscape-font-specification:Arial Bold"
         id="path3152" />
      <path
         d="m 153.27812,977.36218 0,-22.90625 4.39063,0 0,12.15625 5.14062,-5.84375 5.40625,0 -5.67187,6.0625 6.07812,10.53125 -4.73437,0 -4.17188,-7.45312 -2.04687,2.14062 0,5.3125 z"
         style="font-size:32px;font-weight:bold;text-align:center;line-height:94.99999881%;letter-spacing:-1.15000057px;text-anchor:middle;fill:#ffffff;font-family:Arial;-inkscape-font-specification:Arial Bold"
         id="path3154" />
      <path
         d="m 177.82187,977.36218 0,-22.90625 4.39062,0 0,22.90625 z"
         style="font-size:32px;font-weight:bold;text-align:center;line-height:94.99999881%;letter-spacing:-1.15000057px;text-anchor:middle;fill:#ffffff;font-family:Arial;-inkscape-font-specification:Arial Bold"
         id="path3156" />
      <path
         d="m 188.82812,965.83093 -3.98437,-0.71875 c 0.44791,-1.60415 1.21875,-2.79165 2.3125,-3.5625 1.09374,-0.77081 2.71874,-1.15623 4.875,-1.15625 1.95832,2e-5 3.41665,0.23179 4.375,0.69532 0.95832,0.46355 1.6328,1.05209 2.02344,1.76562 0.39061,0.71356 0.58592,2.02345 0.58593,3.92969 l -0.0469,5.125 c -2e-5,1.45833 0.0703,2.53385 0.21094,3.22656 0.14061,0.69271 0.40363,1.4349 0.78906,2.22656 l -4.34375,0 c -0.1146,-0.29166 -0.25522,-0.72395 -0.42188,-1.29687 -0.0729,-0.26042 -0.12501,-0.43229 -0.15625,-0.51563 -0.75001,0.72917 -1.55209,1.27604 -2.40625,1.64063 -0.85417,0.36458 -1.76563,0.54687 -2.73437,0.54687 -1.70834,0 -3.05469,-0.46354 -4.03906,-1.39062 -0.98438,-0.92708 -1.47657,-2.09896 -1.47657,-3.51563 0,-0.93749 0.22396,-1.77343 0.67188,-2.50781 0.44791,-0.73437 1.07552,-1.29687 1.88281,-1.6875 0.80729,-0.39062 1.97135,-0.73176 3.49219,-1.02344 2.05207,-0.3854 3.47395,-0.74478 4.26562,-1.07812 l 0,-0.4375 c -1e-5,-0.84374 -0.20834,-1.4453 -0.625,-1.80469 -0.41667,-0.35936 -1.20313,-0.53905 -2.35937,-0.53906 -0.78126,1e-5 -1.39063,0.15366 -1.82813,0.46094 -0.4375,0.3073 -0.79167,0.84636 -1.0625,1.61718 z m 5.875,3.5625 c -0.56251,0.18751 -1.45313,0.41147 -2.67187,0.67188 -1.21876,0.26042 -2.01563,0.51563 -2.39063,0.76562 -0.57292,0.40626 -0.85938,0.92188 -0.85937,1.54688 -1e-5,0.61459 0.22916,1.14583 0.6875,1.59375 0.45833,0.44792 1.04166,0.67188 1.75,0.67187 0.79166,1e-5 1.54686,-0.26041 2.26562,-0.78125 0.53124,-0.39583 0.8802,-0.8802 1.04688,-1.45312 0.11457,-0.375 0.17186,-1.08854 0.17187,-2.14063 z"
         style="font-size:32px;font-weight:bold;text-align:center;line-height:94.99999881%;letter-spacing:-1.15000057px;text-anchor:middle;fill:#ffffff;font-family:Arial;-inkscape-font-specification:Arial Bold"
         id="path3158" />
      <path
         d="m 213.13124,977.36218 0,-2.48437 c -0.60418,0.88542 -1.39845,1.58333 -2.38281,2.09375 -0.98439,0.51041 -2.02345,0.76562 -3.11719,0.76562 -1.11459,0 -2.11459,-0.24479 -3,-0.73437 -0.88542,-0.48958 -1.52604,-1.17708 -1.92188,-2.0625 -0.39583,-0.88542 -0.59375,-2.10937 -0.59375,-3.67188 l 0,-10.5 4.39063,0 0,7.625 c -1e-5,2.33334 0.0807,3.76303 0.24219,4.28907 0.16145,0.52604 0.45572,0.94271 0.88281,1.25 0.42708,0.30729 0.96874,0.46094 1.625,0.46093 0.74999,1e-5 1.42186,-0.20572 2.01562,-0.61718 0.59374,-0.41146 0.99999,-0.92188 1.21875,-1.53125 0.21874,-0.60937 0.32812,-2.10156 0.32813,-4.47657 l 0,-7 4.39062,0 0,16.59375 z"
         style="font-size:32px;font-weight:bold;text-align:center;line-height:94.99999881%;letter-spacing:-1.15000057px;text-anchor:middle;fill:#ffffff;font-family:Arial;-inkscape-font-specification:Arial Bold"
         id="path3160" />
      <path
         d="m 235.71562,977.36218 -4.39062,0 0,-8.46875 c -2e-5,-1.79165 -0.0938,-2.95051 -0.28125,-3.47656 -0.18752,-0.52603 -0.4922,-0.93488 -0.91407,-1.22656 -0.42188,-0.29166 -0.92969,-0.43749 -1.52343,-0.4375 -0.76043,1e-5 -1.44272,0.20834 -2.04688,0.625 -0.60417,0.41668 -1.01824,0.96876 -1.24219,1.65625 -0.22396,0.68751 -0.33594,1.95834 -0.33593,3.8125 l 0,7.51562 -4.39063,0 0,-16.59375 4.07813,0 0,2.4375 c 1.4479,-1.87498 3.27082,-2.81248 5.46875,-2.8125 0.96873,2e-5 1.85415,0.1745 2.65625,0.52344 0.80206,0.34897 1.40883,0.79429 1.82031,1.33594 0.41144,0.54168 0.6979,1.15626 0.85937,1.84375 0.16144,0.68751 0.24217,1.67188 0.24219,2.95312 z"
         style="font-size:32px;font-weight:bold;text-align:center;line-height:94.99999881%;letter-spacing:-1.15000057px;text-anchor:middle;fill:#ffffff;font-family:Arial;-inkscape-font-specification:Arial Bold"
         id="path3162" />
      <path
         d="m 253.50311,965.67468 -4.32812,0.78125 c -0.14585,-0.86457 -0.47658,-1.51561 -0.99219,-1.95312 -0.51564,-0.43749 -1.18491,-0.65624 -2.00781,-0.65625 -1.09376,1e-5 -1.96616,0.37761 -2.61719,1.13281 -0.65105,0.75522 -0.97657,2.01824 -0.97656,3.78906 -1e-5,1.96876 0.33072,3.35938 0.99218,4.17188 0.66146,0.8125 1.54948,1.21875 2.66407,1.21875 0.83332,0 1.51561,-0.23698 2.04687,-0.71094 0.53124,-0.47395 0.90624,-1.28906 1.125,-2.44531 l 4.3125,0.73437 c -0.44793,1.97917 -1.30731,3.47396 -2.57812,4.48438 -1.27085,1.01041 -2.97397,1.51562 -5.10938,1.51562 -2.42709,0 -4.36198,-0.76562 -5.80469,-2.29687 -1.44271,-1.53125 -2.16406,-3.65104 -2.16406,-6.35938 0,-2.73957 0.72396,-4.87238 2.17188,-6.39843 1.44791,-1.52603 3.40624,-2.28905 5.875,-2.28907 2.02082,2e-5 3.62759,0.43491 4.82031,1.30469 1.19269,0.86981 2.04946,2.19533 2.57031,3.97656 z"
         style="font-size:32px;font-weight:bold;text-align:center;line-height:94.99999881%;letter-spacing:-1.15000057px;text-anchor:middle;fill:#ffffff;font-family:Arial;-inkscape-font-specification:Arial Bold"
         id="path3164" />
      <path
         d="m 260.07187,954.45593 0,8.42188 c 1.41666,-1.65624 3.10936,-2.48436 5.07812,-2.48438 1.01041,2e-5 1.92186,0.18752 2.73438,0.5625 0.81248,0.37502 1.42446,0.85418 1.83594,1.4375 0.41144,0.58335 0.69269,1.22918 0.84375,1.9375 0.15102,0.70835 0.22654,1.80731 0.22656,3.29688 l 0,9.73437 -4.39063,0 0,-8.76562 c -10e-6,-1.73958 -0.0833,-2.84374 -0.25,-3.3125 -0.16668,-0.46874 -0.46095,-0.84114 -0.88281,-1.11719 -0.42189,-0.27603 -0.95053,-0.41405 -1.58594,-0.41406 -0.72917,1e-5 -1.38021,0.17709 -1.95312,0.53125 -0.57293,0.35418 -0.9922,0.88803 -1.25781,1.60156 -0.26564,0.71355 -0.39845,1.76824 -0.39844,3.16406 l 0,8.3125 -4.39063,0 0,-22.90625 z"
         style="font-size:32px;font-weight:bold;text-align:center;line-height:94.99999881%;letter-spacing:-1.15000057px;text-anchor:middle;fill:#ffffff;font-family:Arial;-inkscape-font-specification:Arial Bold"
         id="path3166" />
      <path
         d="m 283.71873,972.08093 4.375,0.73438 c -0.56251,1.60417 -1.45053,2.82552 -2.66406,3.66406 -1.21355,0.83854 -2.73178,1.25781 -4.55469,1.25781 -2.88542,0 -5.02083,-0.94271 -6.40625,-2.82812 -1.09375,-1.51042 -1.64062,-3.41666 -1.64062,-5.71875 0,-2.74999 0.71875,-4.90364 2.15625,-6.46094 1.43749,-1.55728 3.2552,-2.33592 5.45312,-2.33594 2.46874,2e-5 4.41666,0.81512 5.84375,2.44532 1.42707,1.63022 2.10936,4.12761 2.04688,7.49218 l -11,0 c 0.0312,1.30209 0.38541,2.31511 1.0625,3.03907 0.67707,0.72396 1.52082,1.08594 2.53125,1.08593 0.68749,1e-5 1.26561,-0.18749 1.73437,-0.5625 0.46874,-0.37499 0.82291,-0.97916 1.0625,-1.8125 z m 0.25,-4.4375 c -0.0313,-1.27082 -0.35938,-2.23696 -0.98437,-2.89843 -0.62501,-0.66145 -1.38543,-0.99218 -2.28125,-0.99219 -0.95834,1e-5 -1.75001,0.34897 -2.375,1.04687 -0.62501,0.69793 -0.9323,1.64585 -0.92188,2.84375 z"
         style="font-size:32px;font-weight:bold;text-align:center;line-height:94.99999881%;letter-spacing:-1.15000057px;text-anchor:middle;fill:#ffffff;font-family:Arial;-inkscape-font-specification:Arial Bold"
         id="path3168" />
      <path
         d="m 294.97499,977.36218 -4.39063,0 0,-16.59375 4.07813,0 0,2.35938 c 0.69791,-1.11457 1.32551,-1.84894 1.88281,-2.20313 0.55729,-0.35415 1.1901,-0.53123 1.89844,-0.53125 0.99999,2e-5 1.96353,0.27606 2.89062,0.82813 l -1.35937,3.82812 c -0.73959,-0.47915 -1.42709,-0.71873 -2.0625,-0.71875 -0.61459,2e-5 -1.13543,0.16929 -1.5625,0.50782 -0.42709,0.33855 -0.76303,0.95053 -1.00781,1.83593 -0.2448,0.88543 -0.3672,2.73959 -0.36719,5.5625 z"
         style="font-size:32px;font-weight:bold;text-align:center;line-height:94.99999881%;letter-spacing:-1.15000057px;text-anchor:middle;fill:#ffffff;font-family:Arial;-inkscape-font-specification:Arial Bold"
         id="path3170" />
      <path
         d="m 28.528126,991.16843 4.09375,0 0,2.4375 c 0.531243,-0.83332 1.249993,-1.5104 2.15625,-2.03125 0.906241,-0.52081 1.911448,-0.78123 3.015625,-0.78125 1.92707,2e-5 3.562485,0.75523 4.90625,2.26563 1.343733,1.51043 2.015607,3.61459 2.015625,6.3125 -1.8e-5,2.77084 -0.677101,4.92444 -2.03125,6.46094 -1.354181,1.5365 -2.994805,2.3047 -4.921875,2.3047 -0.916677,0 -1.747405,-0.1823 -2.492187,-0.5469 -0.7448,-0.3646 -1.528653,-0.9896 -2.351563,-1.875 l 0,8.3594 -4.390625,0 z m 4.34375,8.01563 c -6e-6,1.86454 0.369785,3.24224 1.109375,4.13284 0.739575,0.8906 1.640616,1.3359 2.703125,1.3359 1.020822,0 1.86978,-0.4088 2.546875,-1.2266 0.67707,-0.8177 1.015611,-2.1588 1.015625,-4.02339 -1.4e-5,-1.73958 -0.348972,-3.03124 -1.046875,-3.875 -0.697929,-0.84374 -1.562511,-1.26561 -2.59375,-1.26563 -1.072926,2e-5 -1.96355,0.41408 -2.671875,1.24219 -0.70834,0.82814 -1.062506,2.0547 -1.0625,3.67969 z"
         style="font-size:32px;font-weight:bold;text-align:center;line-height:94.99999881%;letter-spacing:-1.15000057px;text-anchor:middle;fill:#ffffff;font-family:Arial;-inkscape-font-specification:Arial Bold"
         id="path3172" />
      <path
         d="m 46.05,999.23093 c -2e-6,-1.45832 0.359373,-2.86978 1.078125,-4.23437 0.718747,-1.36457 1.736975,-2.40624 3.054687,-3.125 1.317702,-0.71874 2.789055,-1.07811 4.414063,-1.07813 2.510404,2e-5 4.567694,0.81512 6.171875,2.44531 1.604149,1.63023 2.406231,3.69012 2.40625,6.17969 -1.9e-5,2.51047 -0.809914,4.59117 -2.429688,6.24217 -1.619806,1.6511 -3.658866,2.4766 -6.117187,2.4766 -1.520842,0 -2.971361,-0.3438 -4.351563,-1.0313 -1.380212,-0.6875 -2.42969,-1.6953 -3.148437,-3.0234 -0.718752,-1.3281 -1.078127,-2.9453 -1.078125,-4.85157 z m 4.5,0.23438 c -6e-6,1.64579 0.390619,2.90629 1.171875,3.78129 0.781242,0.875 1.744783,1.3125 2.890625,1.3125 1.145822,0 2.106759,-0.4375 2.882812,-1.3125 0.776028,-0.875 1.164049,-2.1459 1.164063,-3.81254 -1.4e-5,-1.62499 -0.388035,-2.87499 -1.164063,-3.75 -0.776053,-0.87499 -1.73699,-1.31249 -2.882812,-1.3125 -1.145842,10e-6 -2.109383,0.43751 -2.890625,1.3125 -0.781256,0.87501 -1.171881,2.13542 -1.171875,3.78125 z"
         style="font-size:32px;font-weight:bold;text-align:center;line-height:94.99999881%;letter-spacing:-1.15000057px;text-anchor:middle;fill:#ffffff;font-family:Arial;-inkscape-font-specification:Arial Bold"
         id="path3174" />
      <path
         d="m 69.681248,1007.7622 -4.390625,0 0,-16.59377 4.078125,0 0,2.35938 c 0.69791,-1.11457 1.325514,-1.84895 1.882813,-2.20313 0.557283,-0.35415 1.190095,-0.53123 1.898437,-0.53125 0.999989,2e-5 1.96353,0.27606 2.890625,0.82813 l -1.359375,3.82812 c -0.739594,-0.47915 -1.427093,-0.71873 -2.0625,-0.71875 -0.614592,2e-5 -1.135425,0.16929 -1.5625,0.50781 -0.427091,0.33856 -0.763028,0.95054 -1.007812,1.83594 -0.244799,0.88543 -0.367194,2.73959 -0.367188,5.56252 z"
         style="font-size:32px;font-weight:bold;text-align:center;line-height:94.99999881%;letter-spacing:-1.15000057px;text-anchor:middle;fill:#ffffff;font-family:Arial;-inkscape-font-specification:Arial Bold"
         id="path3176" />
      <path
         d="m 84.375,991.16843 0,3.5 -3,0 0,6.68747 c -6e-6,1.3542 0.02864,2.1433 0.08594,2.3672 0.05729,0.224 0.187493,0.4089 0.390625,0.5547 0.203117,0.1458 0.450513,0.2188 0.742187,0.2188 0.406242,0 0.994783,-0.1407 1.765625,-0.4219 l 0.375,3.4062 c -1.020842,0.4375 -2.177091,0.6563 -3.46875,0.6563 -0.791672,0 -1.505213,-0.1328 -2.140625,-0.3985 -0.63542,-0.2656 -1.101566,-0.6093 -1.398437,-1.0312 -0.296878,-0.4219 -0.502607,-0.9922 -0.617188,-1.7109 -0.09375,-0.5105 -0.140627,-1.5417 -0.140625,-3.0938 l 0,-7.23437 -2.015625,0 0,-3.5 2.015625,0 0,-3.29687 4.40625,-2.5625 0,5.85937 z"
         style="font-size:32px;font-weight:bold;text-align:center;line-height:94.99999881%;letter-spacing:-1.15000057px;text-anchor:middle;fill:#ffffff;font-family:Arial;-inkscape-font-specification:Arial Bold"
         id="path3178" />
      <path
         d="m 89.584374,996.23093 -3.984375,-0.71875 c 0.447915,-1.60415 1.218747,-2.79165 2.3125,-3.5625 1.093745,-0.77081 2.718743,-1.15623 4.875,-1.15625 1.958323,2e-5 3.416654,0.23179 4.375,0.69531 0.958319,0.46356 1.632798,1.0521 2.023437,1.76563 0.39061,0.71356 0.585922,2.02345 0.585938,3.92969 l -0.04687,5.12504 c -1.6e-5,1.4583 0.0703,2.5338 0.210937,3.2265 0.140614,0.6927 0.403634,1.4349 0.789064,2.2266 l -4.343751,0 c -0.114596,-0.2917 -0.255221,-0.724 -0.421875,-1.2969 -0.07293,-0.2604 -0.125012,-0.4323 -0.15625,-0.5156 -0.750011,0.7291 -1.552094,1.276 -2.40625,1.6406 -0.854175,0.3646 -1.765633,0.5469 -2.734375,0.5469 -1.708338,0 -3.054691,-0.4636 -4.039063,-1.3906 -0.984376,-0.9271 -1.476563,-2.099 -1.476562,-3.5157 -10e-7,-0.9375 0.223957,-1.7734 0.671875,-2.5078 0.447914,-0.73435 1.075518,-1.29685 1.882812,-1.68748 0.807288,-0.39062 1.971349,-0.73176 3.492188,-1.02344 2.052074,-0.3854 3.473948,-0.74478 4.265625,-1.07812 l 0,-0.4375 c -1.2e-5,-0.84374 -0.208345,-1.4453 -0.625,-1.80469 -0.416677,-0.35936 -1.203135,-0.53905 -2.359375,-0.53906 -0.781258,10e-6 -1.390632,0.15366 -1.828125,0.46093 -0.437506,0.30731 -0.791673,0.84637 -1.0625,1.61719 z m 5.875,3.5625 c -0.562511,0.18751 -1.453135,0.41147 -2.671875,0.67187 -1.218758,0.2604 -2.015632,0.5156 -2.390625,0.7656 -0.572923,0.4063 -0.859381,0.9219 -0.859375,1.5469 -6e-6,0.6146 0.229161,1.1458 0.6875,1.5938 0.458327,0.4479 1.041659,0.6718 1.75,0.6718 0.791658,0 1.546865,-0.2604 2.265625,-0.7812 0.531239,-0.3958 0.880197,-0.8802 1.046875,-1.4531 0.114572,-0.375 0.171863,-1.0886 0.171875,-2.1407 z"
         style="font-size:32px;font-weight:bold;text-align:center;line-height:94.99999881%;letter-spacing:-1.15000057px;text-anchor:middle;fill:#ffffff;font-family:Arial;-inkscape-font-specification:Arial Bold"
         id="path3180" />
      <path
         d="m 102.96563,1007.7622 0,-22.90627 4.39062,0 0,22.90627 z"
         style="font-size:32px;font-weight:bold;text-align:center;line-height:94.99999881%;letter-spacing:-1.15000057px;text-anchor:middle;fill:#ffffff;font-family:Arial;-inkscape-font-specification:Arial Bold"
         id="path3182" />
      <path
         d="m 118.0875,991.16843 4.04687,0 0,2.26563 c 1.44791,-1.7604 3.17187,-2.64061 5.17188,-2.64063 1.06249,2e-5 1.98436,0.21877 2.76562,0.65625 0.78124,0.43752 1.42186,1.09898 1.92188,1.98438 0.72915,-0.8854 1.51561,-1.54686 2.35937,-1.98438 0.84373,-0.43748 1.74477,-0.65623 2.70313,-0.65625 1.21873,2e-5 2.24998,0.24741 3.09375,0.74219 0.84372,0.49481 1.47393,1.22137 1.89062,2.17969 0.30206,0.70834 0.4531,1.85418 0.45313,3.4375 l 0,10.60939 -4.39063,0 0,-9.48439 c -2e-5,-1.64582 -0.15106,-2.70832 -0.45312,-3.1875 -0.40627,-0.62499 -1.03127,-0.93749 -1.875,-0.9375 -0.6146,10e-6 -1.19273,0.18751 -1.73438,0.5625 -0.54168,0.37501 -0.93231,0.92449 -1.17187,1.64843 -0.2396,0.72397 -0.35939,1.8672 -0.35938,3.42969 l 0,7.96877 -4.39062,0 0,-9.09377 c -1e-5,-1.61457 -0.0781,-2.65624 -0.23438,-3.125 -0.15626,-0.46874 -0.39845,-0.81769 -0.72656,-1.04687 -0.32814,-0.22916 -0.77345,-0.34374 -1.33594,-0.34375 -0.67709,10e-6 -1.28646,0.1823 -1.82812,0.54687 -0.54168,0.3646 -0.9297,0.89064 -1.16406,1.57813 -0.23439,0.68751 -0.35157,1.82813 -0.35157,3.42187 l 0,8.06252 -4.39062,0 z"
         style="font-size:32px;font-weight:bold;text-align:center;line-height:94.99999881%;letter-spacing:-1.15000057px;text-anchor:middle;fill:#ffffff;font-family:Arial;-inkscape-font-specification:Arial Bold"
         id="path3184" />
      <path
         d="m 144.6875,999.23093 c 0,-1.45832 0.35937,-2.86978 1.07812,-4.23437 0.71875,-1.36457 1.73698,-2.40624 3.05469,-3.125 1.3177,-0.71874 2.78905,-1.07811 4.41406,-1.07813 2.51041,2e-5 4.5677,0.81512 6.17188,2.44531 1.60415,1.63023 2.40623,3.69012 2.40625,6.17969 -2e-5,2.51047 -0.80992,4.59117 -2.42969,6.24217 -1.61981,1.6511 -3.65887,2.4766 -6.11719,2.4766 -1.52084,0 -2.97136,-0.3438 -4.35156,-1.0313 -1.38021,-0.6875 -2.42969,-1.6953 -3.14844,-3.0234 -0.71875,-1.3281 -1.07812,-2.9453 -1.07812,-4.85157 z m 4.5,0.23438 c -1e-5,1.64579 0.39062,2.90629 1.17187,3.78129 0.78124,0.875 1.74478,1.3125 2.89063,1.3125 1.14582,0 2.10676,-0.4375 2.88281,-1.3125 0.77603,-0.875 1.16405,-2.1459 1.16406,-3.81254 -1e-5,-1.62499 -0.38803,-2.87499 -1.16406,-3.75 -0.77605,-0.87499 -1.73699,-1.31249 -2.88281,-1.3125 -1.14585,10e-6 -2.10939,0.43751 -2.89063,1.3125 -0.78125,0.87501 -1.17188,2.13542 -1.17187,3.78125 z"
         style="font-size:32px;font-weight:bold;text-align:center;line-height:94.99999881%;letter-spacing:-1.15000057px;text-anchor:middle;fill:#ffffff;font-family:Arial;-inkscape-font-specification:Arial Bold"
         id="path3186" />
      <path
         d="m 179.33437,1007.7622 -4.07812,0 0,-2.4375 c -0.6771,0.9479 -1.47658,1.6536 -2.39844,2.1172 -0.92189,0.4635 -1.85157,0.6953 -2.78906,0.6953 -1.90626,0 -3.53907,-0.7682 -4.89844,-2.3047 -1.35938,-1.5365 -2.03907,-3.6797 -2.03906,-6.42969 -1e-5,-2.81249 0.66145,-4.95051 1.98437,-6.41407 1.32291,-1.46352 2.99479,-2.19529 5.01563,-2.19531 1.85415,2e-5 3.45832,0.77085 4.8125,2.3125 l 0,-8.25 4.39062,0 z m -11.71875,-8.65627 c -1e-5,1.77087 0.24479,3.05207 0.73438,3.84377 0.70832,1.1458 1.6979,1.7187 2.96875,1.7187 1.0104,0 1.86978,-0.4297 2.57812,-1.289 0.70832,-0.8594 1.06249,-2.1433 1.0625,-3.85159 -1e-5,-1.90624 -0.34376,-3.27864 -1.03125,-4.11719 -0.68751,-0.83853 -1.56772,-1.2578 -2.64062,-1.25781 -1.04168,10e-6 -1.91407,0.41407 -2.61719,1.24218 -0.70313,0.82814 -1.0547,2.06512 -1.05469,3.71094 z"
         style="font-size:32px;font-weight:bold;text-align:center;line-height:94.99999881%;letter-spacing:-1.15000057px;text-anchor:middle;fill:#ffffff;font-family:Arial;-inkscape-font-specification:Arial Bold"
         id="path3188" />
      <path
         d="m 180.98125,1003.0278 4.40625,-0.6719 c 0.1875,0.8542 0.5677,1.5026 1.14063,1.9453 0.57291,0.4428 1.37499,0.6641 2.40625,0.6641 1.1354,0 1.98957,-0.2083 2.5625,-0.625 0.3854,-0.2917 0.57811,-0.6823 0.57812,-1.1719 -10e-6,-0.3333 -0.10418,-0.6093 -0.3125,-0.8281 -0.21876,-0.2083 -0.70834,-0.401 -1.46875,-0.5781 -3.54167,-0.7813 -5.78646,-1.4948 -6.73437,-2.14064 -1.31251,-0.89583 -1.96876,-2.14062 -1.96875,-3.73438 -1e-5,-1.43748 0.5677,-2.64582 1.70312,-3.625 1.13541,-0.97915 2.89583,-1.46873 5.28125,-1.46875 2.27082,2e-5 3.95832,0.36981 5.0625,1.10938 1.10415,0.7396 1.86457,1.83334 2.28125,3.28125 l -4.14062,0.76562 c -0.1771,-0.64582 -0.51304,-1.14061 -1.00782,-1.48437 -0.4948,-0.34374 -1.20053,-0.51561 -2.11718,-0.51563 -1.15626,2e-5 -1.98439,0.16147 -2.48438,0.48438 -0.33334,0.22918 -0.5,0.52605 -0.5,0.89062 0,0.31251 0.14583,0.57814 0.4375,0.79688 0.39583,0.29168 1.76301,0.70313 4.10156,1.23437 2.33853,0.53126 3.97134,1.1823 4.89844,1.95313 0.91665,0.78124 1.37498,1.86984 1.375,3.26564 -2e-5,1.5208 -0.63543,2.8281 -1.90625,3.9219 -1.27085,1.0937 -3.15105,1.6406 -5.64062,1.6406 -2.26043,0 -4.04949,-0.4584 -5.36719,-1.375 -1.31771,-0.9167 -2.17969,-2.1615 -2.58594,-3.7344 z"
         style="font-size:32px;font-weight:bold;text-align:center;line-height:94.99999881%;letter-spacing:-1.15000057px;text-anchor:middle;fill:#ffffff;font-family:Arial;-inkscape-font-specification:Arial Bold"
         id="path3190" />
      <path
         d="m 196.84687,1008.1528 5.67187,-23.68749 3.29688,0 -5.73438,23.68749 z"
         style="font-size:32px;font-weight:bold;text-align:center;line-height:94.99999881%;letter-spacing:-1.15000057px;text-anchor:middle;fill:#ffffff;font-family:Arial;-inkscape-font-specification:Arial Bold"
         id="path3192" />
      <path
         d="m 206.50937,1008.8559 5.01563,0.6094 c 0.0833,0.5833 0.27603,0.9844 0.57812,1.2031 0.41666,0.3125 1.07291,0.4688 1.96875,0.4688 1.14583,0 2.0052,-0.1719 2.57813,-0.5156 0.3854,-0.2292 0.67707,-0.599 0.875,-1.1094 0.1354,-0.3646 0.20311,-1.0365 0.20312,-2.0156 l 0,-2.4219 c -1.31251,1.7916 -2.96876,2.6875 -4.96875,2.6875 -2.22917,0 -3.99479,-0.9427 -5.29687,-2.8281 -1.02084,-1.4896 -1.53125,-3.3438 -1.53125,-5.56254 0,-2.78124 0.66927,-4.90624 2.00781,-6.375 1.33854,-1.46874 3.0026,-2.20311 4.99219,-2.20313 2.05207,2e-5 3.74478,0.90106 5.07812,2.70313 l 0,-2.32813 4.10938,0 0,14.89067 c -2e-5,1.9583 -0.16148,3.4218 -0.48438,4.3906 -0.32293,0.9687 -0.77605,1.7291 -1.35937,2.2812 -0.58335,0.5521 -1.362,0.9844 -2.33594,1.2969 -0.97397,0.3125 -2.20574,0.4688 -3.69531,0.4688 -2.81251,0 -4.8073,-0.4818 -5.98438,-1.4454 -1.17708,-0.9635 -1.76562,-2.1849 -1.76562,-3.664 0,-0.1459 0.005,-0.3229 0.0156,-0.5313 z m 3.92188,-9.73434 c -1e-5,1.76044 0.34114,3.04944 1.02344,3.86714 0.68228,0.8178 1.52342,1.2266 2.52343,1.2266 1.07291,0 1.97916,-0.4193 2.71875,-1.2578 0.73957,-0.8385 1.10937,-2.0807 1.10938,-3.72657 -1e-5,-1.71874 -0.35418,-2.99478 -1.0625,-3.82812 -0.70835,-0.83332 -1.60418,-1.24999 -2.6875,-1.25 -1.05209,10e-6 -1.91928,0.40886 -2.60156,1.22656 -0.6823,0.81772 -1.02345,2.06511 -1.02344,3.74219 z"
         style="font-size:32px;font-weight:bold;text-align:center;line-height:94.99999881%;letter-spacing:-1.15000057px;text-anchor:middle;fill:#ffffff;font-family:Arial;-inkscape-font-specification:Arial Bold"
         id="path3194" />
      <path
         d="m 228.60936,996.23093 -3.98437,-0.71875 c 0.44791,-1.60415 1.21875,-2.79165 2.3125,-3.5625 1.09374,-0.77081 2.71874,-1.15623 4.875,-1.15625 1.95832,2e-5 3.41665,0.23179 4.375,0.69531 0.95832,0.46356 1.6328,1.0521 2.02344,1.76563 0.39061,0.71356 0.58592,2.02345 0.58593,3.92969 l -0.0469,5.12504 c -2e-5,1.4583 0.0703,2.5338 0.21094,3.2265 0.14061,0.6927 0.40363,1.4349 0.78906,2.2266 l -4.34375,0 c -0.1146,-0.2917 -0.25522,-0.724 -0.42188,-1.2969 -0.0729,-0.2604 -0.12501,-0.4323 -0.15625,-0.5156 -0.75001,0.7291 -1.55209,1.276 -2.40625,1.6406 -0.85417,0.3646 -1.76563,0.5469 -2.73437,0.5469 -1.70834,0 -3.05469,-0.4636 -4.03906,-1.3906 -0.98438,-0.9271 -1.47657,-2.099 -1.47657,-3.5157 0,-0.9375 0.22396,-1.7734 0.67188,-2.5078 0.44791,-0.73435 1.07552,-1.29685 1.88281,-1.68748 0.80729,-0.39062 1.97135,-0.73176 3.49219,-1.02344 2.05207,-0.3854 3.47395,-0.74478 4.26562,-1.07812 l 0,-0.4375 c -1e-5,-0.84374 -0.20834,-1.4453 -0.625,-1.80469 -0.41667,-0.35936 -1.20313,-0.53905 -2.35937,-0.53906 -0.78126,10e-6 -1.39063,0.15366 -1.82813,0.46093 -0.4375,0.30731 -0.79167,0.84637 -1.0625,1.61719 z m 5.875,3.5625 c -0.56251,0.18751 -1.45313,0.41147 -2.67187,0.67187 -1.21876,0.2604 -2.01563,0.5156 -2.39063,0.7656 -0.57292,0.4063 -0.85938,0.9219 -0.85937,1.5469 -1e-5,0.6146 0.22916,1.1458 0.6875,1.5938 0.45833,0.4479 1.04166,0.6718 1.75,0.6718 0.79166,0 1.54686,-0.2604 2.26562,-0.7812 0.53124,-0.3958 0.8802,-0.8802 1.04688,-1.4531 0.11457,-0.375 0.17186,-1.0886 0.17187,-2.1407 z"
         style="font-size:32px;font-weight:bold;text-align:center;line-height:94.99999881%;letter-spacing:-1.15000057px;text-anchor:middle;fill:#ffffff;font-family:Arial;-inkscape-font-specification:Arial Bold"
         id="path3196" />
      <path
         d="m 241.6625,991.16843 4.04687,0 0,2.26563 c 1.44791,-1.7604 3.17187,-2.64061 5.17188,-2.64063 1.06248,2e-5 1.98436,0.21877 2.76562,0.65625 0.78124,0.43752 1.42186,1.09898 1.92188,1.98438 0.72915,-0.8854 1.5156,-1.54686 2.35937,-1.98438 0.84373,-0.43748 1.74477,-0.65623 2.70313,-0.65625 1.21872,2e-5 2.24997,0.24741 3.09375,0.74219 0.84372,0.49481 1.47393,1.22137 1.89062,2.17969 0.30206,0.70834 0.4531,1.85418 0.45313,3.4375 l 0,10.60939 -4.39063,0 0,-9.48439 c -2e-5,-1.64582 -0.15106,-2.70832 -0.45312,-3.1875 -0.40628,-0.62499 -1.03128,-0.93749 -1.875,-0.9375 -0.61461,10e-6 -1.19273,0.18751 -1.73438,0.5625 -0.54168,0.37501 -0.93231,0.92449 -1.17187,1.64843 -0.2396,0.72397 -0.3594,1.8672 -0.35938,3.42969 l 0,7.96877 -4.39062,0 0,-9.09377 c -2e-5,-1.61457 -0.0781,-2.65624 -0.23438,-3.125 -0.15626,-0.46874 -0.39845,-0.81769 -0.72656,-1.04687 -0.32814,-0.22916 -0.77345,-0.34374 -1.33594,-0.34375 -0.67709,10e-6 -1.28647,0.1823 -1.82812,0.54687 -0.54168,0.3646 -0.9297,0.89064 -1.16407,1.57813 -0.23438,0.68751 -0.35157,1.82813 -0.35156,3.42187 l 0,8.06252 -4.39062,0 z"
         style="font-size:32px;font-weight:bold;text-align:center;line-height:94.99999881%;letter-spacing:-1.15000057px;text-anchor:middle;fill:#ffffff;font-family:Arial;-inkscape-font-specification:Arial Bold"
         id="path3198" />
      <path
         d="m 278.88749,1002.4809 4.375,0.7344 c -0.56252,1.6042 -1.45054,2.8255 -2.66407,3.6641 -1.21355,0.8385 -2.73178,1.2578 -4.55468,1.2578 -2.88543,0 -5.02084,-0.9427 -6.40625,-2.8281 -1.09376,-1.5105 -1.64063,-3.4167 -1.64063,-5.71879 0,-2.74999 0.71875,-4.90364 2.15625,-6.46094 1.4375,-1.55728 3.2552,-2.33592 5.45313,-2.33594 2.46873,2e-5 4.41665,0.81512 5.84375,2.44531 1.42706,1.63023 2.10935,4.12762 2.04687,7.49216 l -11,0 c 0.0312,1.3021 0.38541,2.3151 1.0625,3.0391 0.67708,0.724 1.52083,1.0859 2.53125,1.0859 0.68749,0 1.26562,-0.1875 1.73438,-0.5625 0.46873,-0.375 0.8229,-0.9791 1.0625,-1.8125 z m 0.25,-4.43747 c -0.0313,-1.27082 -0.35939,-2.23696 -0.98438,-2.89844 -0.62501,-0.66144 -1.38543,-0.99217 -2.28125,-0.99218 -0.95834,10e-6 -1.75001,0.34897 -2.375,1.04687 -0.625,0.69793 -0.9323,1.64585 -0.92187,2.84375 z"
         style="font-size:32px;font-weight:bold;text-align:center;line-height:94.99999881%;letter-spacing:-1.15000057px;text-anchor:middle;fill:#ffffff;font-family:Arial;-inkscape-font-specification:Arial Bold"
         id="path3200" />
    </g>
    <text
       sodipodi:linespacing="94.999999%"
       id="text2987-3"
       y="1036.3622"
       x="155.44434"
       style="font-size:20px;font-style:normal;font-variant:normal;font-weight:normal;font-stretch:normal;line-height:94.99999881%;letter-spacing:0px;word-spacing:0px;fill:#ffffff;fill-opacity:1;stroke:none;font-family:DIN 1451 Engschrift;-inkscape-font-specification:DIN 1451 Engschrift"
       xml:space="preserve"><tspan
         id="tspan3796-6"
         style="font-size:20px;font-style:normal;font-variant:normal;font-weight:bold;font-stretch:normal;text-align:center;line-height:94.99999881%;letter-spacing:-1.15000057px;text-anchor:middle;fill:#ffffff;font-family:Arial;-inkscape-font-specification:Arial Bold"
         y="1036.3622"
         x="154.86934"
         sodipodi:role="line">select your version</tspan></text>
    <text
       xml:space="preserve"
       style="font-size:20px;font-style:normal;font-variant:normal;font-weight:normal;font-stretch:normal;line-height:94.99999881%;letter-spacing:0px;word-spacing:0px;fill:#ffffff;fill-opacity:1;stroke:none;font-family:DIN 1451 Engschrift;-inkscape-font-specification:DIN 1451 Engschrift"
       x="205.44434"
       y="1086.3622"
       id="text3416"
       sodipodi:linespacing="94.999999%"><tspan
         sodipodi:role="line"
         x="204.86934"
         y="1086.3622"
         style="font-size:20px;font-style:normal;font-variant:normal;font-weight:bold;font-stretch:normal;text-align:center;line-height:94.99999881%;letter-spacing:-1.15000057px;text-anchor:middle;fill:#ffffff;font-family:Arial;-inkscape-font-specification:Arial Bold"
         id="tspan3418">select your version</tspan></text>
  </g>
</svg>
