<?xml version="1.0" encoding="UTF-8" standalone="no"?>
<!-- Created with Inkscape (http://www.inkscape.org/) -->

<svg
   xmlns:dc="http://purl.org/dc/elements/1.1/"
   xmlns:cc="http://creativecommons.org/ns#"
   xmlns:rdf="http://www.w3.org/1999/02/22-rdf-syntax-ns#"
   xmlns:svg="http://www.w3.org/2000/svg"
   xmlns="http://www.w3.org/2000/svg"
   xmlns:sodipodi="http://sodipodi.sourceforge.net/DTD/sodipodi-0.dtd"
   xmlns:inkscape="http://www.inkscape.org/namespaces/inkscape"
   width="32"
   height="32"
   id="svg3033"
   version="1.1"
   inkscape:version="0.48.4 r9939"
   sodipodi:docname="settings_wrench.svg"
   inkscape:export-filename="C:\Users\RyanAwesome\Documents\portalsdk\src\settings_wrench.png"
   inkscape:export-xdpi="90"
   inkscape:export-ydpi="90">
  <defs
     id="defs3035" />
  <sodipodi:namedview
     id="base"
     pagecolor="#000000"
     bordercolor="#666666"
     borderopacity="1.0"
     inkscape:pageopacity="0"
     inkscape:pageshadow="2"
     inkscape:zoom="11.2"
     inkscape:cx="35.414559"
     inkscape:cy="11.565597"
     inkscape:document-units="px"
     inkscape:current-layer="layer1"
     showgrid="true"
     inkscape:snap-bbox="true">
    <inkscape:grid
       type="xygrid"
       id="grid3041"
       empspacing="5"
       visible="true"
       enabled="true"
       snapvisiblegridlinesonly="true" />
  </sodipodi:namedview>
  <metadata
     id="metadata3038">
    <rdf:RDF>
      <cc:Work
         rdf:about="">
        <dc:format>image/svg+xml</dc:format>
        <dc:type
           rdf:resource="http://purl.org/dc/dcmitype/StillImage" />
        <dc:title></dc:title>
      </cc:Work>
    </rdf:RDF>
  </metadata>
  <g
     inkscape:label="Layer 1"
     inkscape:groupmode="layer"
     id="layer1"
     transform="translate(0,-1020.3622)">
    <path
       style="fill:#ffffff;fill-opacity:1;fill-rule:nonzero;stroke:none"
       d="m 0.47200371,1024.7071 c -0.95394859,2.4533 -0.46784155,5.3416 1.51285979,7.3222 1.5792875,1.5794 3.7556081,2.2229 5.8093813,1.9365 l 18.3963752,18.3963 c 0,0 1.936459,0 3.87292,-1.9364 C 32,1048.4892 32,1046.5528 32,1046.5528 l -18.396374,-18.3963 c 0.286409,-2.0538 -0.357173,-4.2301 -1.93646,-5.8095 -1.9807014,-1.9806 -4.8689453,-2.4668 -7.3222414,-1.5128 l 5.38578,5.3857 c 0,0 0.9682314,0.9683 -0.9682299,2.9048 -1.9364601,1.9364 -2.9046904,0.9682 -2.9046904,0.9682 l -5.38578059,-5.3858 z m 23.78215529,19.9093 c 1.069477,-1.0695 2.803444,-1.0695 3.87292,0 1.069477,1.0693 1.069477,2.8034 0,3.8728 -1.069476,1.0696 -2.803443,1.0696 -3.87292,0 -1.069477,-1.0694 -1.069477,-2.8035 0,-3.8728 z"
       id="path3131"
       inkscape:connector-curvature="0" />
  </g>
</svg>
